<?xml version="1.0" encoding="utf-8"?>
<!-- Generator: Adobe Illustrator 16.0.0, SVG Export Plug-In . SVG Version: 6.00 Build 0)  -->
<svg version="1.2" baseProfile="tiny" id="Vrstva_1"
	 xmlns="http://www.w3.org/2000/svg" xmlns:xlink="http://www.w3.org/1999/xlink" x="0px" y="0px" width="237.056px"
	 height="197.969px" viewBox="0 0 237.056 197.969" xml:space="preserve">
<path fill="#FFFFFF" stroke="#1F5272" stroke-width="7" stroke-linecap="round" stroke-linejoin="round" stroke-miterlimit="10" d="
	M231.606,182.647c0,6.627-5.373,12-12,12h-202c-6.627,0-12-5.373-12-12v-161c0-6.627,5.373-12,12-12h202c6.627,0,12,5.373,12,12
	V182.647z"/>
<line fill="none" stroke="#1F5272" stroke-width="7" stroke-linecap="round" stroke-linejoin="round" stroke-miterlimit="10" x1="42.106" y1="168.647" x2="209.106" y2="168.647"/>
<line fill="none" stroke="#1F5272" stroke-width="7" stroke-linecap="round" stroke-linejoin="round" stroke-miterlimit="10" x1="209.106" y1="165.647" x2="159.898" y2="43.981"/>
<line fill="none" stroke="#1F5272" stroke-width="7" stroke-linecap="round" stroke-linejoin="round" stroke-miterlimit="10" x1="159.898" y1="43.981" x2="125.606" y2="119.29"/>
<line fill="none" stroke="#1F5272" stroke-width="7" stroke-linecap="round" stroke-linejoin="round" stroke-miterlimit="10" x1="125.606" y1="119.29" x2="97.606" y2="79.05"/>
<line fill="none" stroke="#1F5272" stroke-width="7" stroke-linecap="round" stroke-linejoin="round" stroke-miterlimit="10" x1="97.462" y1="79.441" x2="42.106" y2="165.647"/>
<circle fill="none" stroke="#1F5272" stroke-width="7" stroke-linecap="round" stroke-linejoin="round" stroke-miterlimit="10" cx="51.345" cy="50.979" r="13.053"/>
<path fill="none" stroke="#1F5272" stroke-width="7" stroke-linecap="round" stroke-linejoin="round" stroke-miterlimit="10" d="
	M84.58,50.979c-12.865,5.625-15.145,10.718-9.735,23.5c-12.782-5.41-17.875-3.13-23.5,9.735
	c-5.624-12.865-10.717-15.145-23.499-9.735c5.41-12.782,3.13-17.875-9.735-23.5c12.865-5.624,15.145-10.717,9.735-23.499
	c12.782,5.41,17.875,3.13,23.499-9.735c5.625,12.865,10.718,15.145,23.5,9.735C69.435,40.262,71.715,45.355,84.58,50.979z"/>
<line fill="none" stroke="#1F5272" stroke-width="7" stroke-linecap="round" stroke-linejoin="round" stroke-miterlimit="10" x1="113.678" y1="102.147" x2="97.606" y2="109.644"/>
<line fill="none" stroke="#1F5272" stroke-width="7" stroke-linecap="round" stroke-linejoin="round" stroke-miterlimit="10" x1="97.606" y1="109.644" x2="82.133" y2="103.313"/>
<line fill="none" stroke="#1F5272" stroke-width="7" stroke-linecap="round" stroke-linejoin="round" stroke-miterlimit="10" x1="144.67" y1="77.782" x2="159.898" y2="82.741"/>
<line fill="none" stroke="#1F5272" stroke-width="7" stroke-linecap="round" stroke-linejoin="round" stroke-miterlimit="10" x1="159.898" y1="82.741" x2="172.188" y2="74.366"/>
</svg>
