<?xml version="1.0" encoding="utf-8"?>
<!-- Generator: Adobe Illustrator 16.0.0, SVG Export Plug-In . SVG Version: 6.00 Build 0)  -->
<svg version="1.2" baseProfile="tiny" id="Vrstva_1"
	 xmlns="http://www.w3.org/2000/svg" xmlns:xlink="http://www.w3.org/1999/xlink" x="0px" y="0px" width="255.5px" height="266px"
	 viewBox="0 0 255.5 266" xml:space="preserve">
<g>
	<path fill="#E0940E" d="M191,116.848c0,0-0.09,0.401-0.105,1.177c-0.032,0.779-0.039,1.92-0.176,3.442
		c-0.178,3.037-0.604,7.472-1.912,13.014c-1.302,5.523-3.431,12.215-7.35,19.312c-1.965,3.535-4.382,7.158-7.333,10.694
		c-2.994,3.483-6.464,6.959-10.59,9.979c-4.118,3.018-8.805,5.687-13.973,7.697c-5.151,2.051-10.799,3.354-16.65,3.926
		c-1.462,0.15-2.944,0.188-4.428,0.264c-0.744-0.006-1.49-0.012-2.238-0.018l-1.122-0.01l-0.244-0.005l-0.132-0.008l-0.264-0.017
		l-0.529-0.032c-0.706-0.05-1.414-0.1-2.124-0.15c-0.725-0.062-1.535-0.174-2.299-0.262c-1.571-0.157-3.048-0.455-4.56-0.713
		c-3-0.609-5.991-1.401-8.913-2.455c-1.476-0.477-2.906-1.107-4.353-1.684c-1.414-0.663-2.858-1.261-4.234-2.021
		c-11.159-5.735-20.907-14.492-28.13-25.188c-7.195-10.744-11.681-23.512-12.376-37.026c-0.026-1.626-0.136-3.15-0.054-4.909
		c0.012-1.73,0.155-3.398,0.288-5.075c0.356-3.345,0.879-6.691,1.716-9.97c0.879-3.262,1.931-6.489,3.271-9.597
		c1.37-3.09,2.933-6.096,4.732-8.947C74.111,66.85,84.637,57.78,96.444,52.372c2.946-1.359,5.955-2.552,9.03-3.422
		c3.058-0.93,6.166-1.581,9.26-2.054c1.554-0.19,3.096-0.418,4.642-0.501c1.542-0.14,3.079-0.192,4.606-0.204l0.573-0.008
		l0.286-0.004l0.413,0.003l1.055,0.039c0.702,0.026,1.402,0.052,2.1,0.078c1.521,0.129,3.134,0.223,4.6,0.426
		c1.476,0.197,2.94,0.398,4.375,0.711c1.444,0.259,2.858,0.61,4.256,0.971c1.407,0.327,2.762,0.809,4.124,1.205
		c1.341,0.468,2.667,0.945,3.956,1.475c5.169,2.11,9.842,4.849,13.944,7.92c4.109,3.075,7.573,6.572,10.55,10.085
		c2.949,3.551,5.348,7.192,7.314,10.733c3.915,7.112,6.036,13.812,7.327,19.345c1.298,5.548,1.687,10,1.848,13.022
		c0.129,1.511,0.171,2.675,0.198,3.457c0.013,0.782,0.1,1.186,0.1,1.186V116.848z M190,116.835c0,0-0.095-0.397-0.122-1.168
		c-0.043-0.77-0.065-1.915-0.222-3.399c-0.229-2.964-0.833-7.337-2.55-12.61c-1.699-5.254-4.603-11.422-9.313-17.377
		c-2.323-2.989-5.083-5.92-8.239-8.663c-3.132-2.769-6.7-5.315-10.598-7.578c-7.805-4.474-17.004-7.932-27.125-8.875
		c-1.267-0.146-2.431-0.174-3.692-0.267c-0.698-0.009-1.398-0.019-2.101-0.029l-1.056-0.014l-0.846,0.035
		c-0.65,0.019-1.301,0.039-1.955,0.058c-0.653,0.025-1.305,0.097-1.96,0.142c-1.314,0.07-2.619,0.279-3.937,0.44
		c-2.618,0.425-5.268,0.89-7.868,1.659c-1.315,0.333-2.595,0.799-3.906,1.196c-1.277,0.489-2.593,0.907-3.851,1.484
		c-10.189,4.284-19.609,11.636-26.378,21.293c-3.378,4.819-6.175,10.14-8.196,15.816c-1.042,2.83-1.828,5.764-2.469,8.744
		c-0.278,1.5-0.57,3.008-0.735,4.48c-0.236,1.434-0.304,3.122-0.443,4.699l-0.063,2.24c-0.038,0.772-0.014,1.542,0.007,2.314
		c0.004,1.547,0.13,3.086,0.253,4.631c0.355,3.072,0.854,6.143,1.649,9.145c0.847,2.982,1.845,5.93,3.109,8.762
		c1.296,2.813,2.75,5.557,4.465,8.121c1.708,2.565,3.592,5.004,5.66,7.253c2.094,2.223,4.299,4.32,6.684,6.165
		c4.751,3.707,10.012,6.578,15.427,8.582c5.41,2.034,10.982,3.156,16.416,3.656c1.36,0.094,2.73,0.232,4.019,0.229
		c0.663,0.009,1.273,0.044,1.97,0.035c0.711-0.015,1.421-0.028,2.128-0.043l0.53-0.006l0.265-0.002l0.132-0.002
		c0.068,0.001-0.116-0.007,0.021-0.008l0.988-0.063c0.656-0.041,1.311-0.082,1.963-0.123c1.298-0.148,2.592-0.229,3.863-0.43
		c5.091-0.715,9.955-1.903,14.495-3.549c4.532-1.663,8.777-3.671,12.664-5.984c3.881-2.317,7.443-4.886,10.558-7.685
		c3.154-2.758,5.896-5.707,8.221-8.701c4.706-5.971,7.602-12.147,9.289-17.411c1.706-5.279,2.274-9.669,2.485-12.619
		c0.148-1.472,0.207-2.641,0.245-3.413c0.023-0.776,0.116-1.177,0.116-1.177V116.835z"/>
	<path fill="#E0940E" d="M220.261,116.601c-2.391,0.799-4.758,1.594-7.088,2.493c-1.172,0.43-2.32,0.914-3.47,1.385
		c-1.141,0.492-2.278,0.979-3.389,1.514c-2.214,1.065-4.365,2.255-6.217,3.689c-0.892,0.737-1.763,1.5-2.372,2.368
		c-0.622,0.856-1.092,1.749-1.235,2.672c-0.149,0.922-0.035,1.877,0.267,2.848c0.277,0.974,0.864,1.939,1.437,2.885
		c0.648,0.935,1.351,1.853,2.143,2.732c0.782,0.884,1.628,1.734,2.496,2.569c3.521,3.31,7.44,6.347,11.443,9.264l8.132,5.926
		l-10.144-1.165c-4.864-0.559-9.753-1.026-14.475-0.958c-1.175,0.026-2.343,0.059-3.47,0.169c-1.137,0.092-2.224,0.267-3.252,0.49
		c-0.996,0.252-1.969,0.544-2.675,0.964c-0.73,0.406-1.246,0.85-1.548,1.338c-0.296,0.493-0.47,1.117-0.526,1.924
		c-0.081,0.785,0.066,1.773,0.243,2.757c0.43,2.018,1.235,4.166,2.18,6.285c1.926,4.25,4.339,8.483,6.861,12.644l7.708,12.714
		l-13.018-7.404c-4.227-2.404-8.514-4.731-12.804-6.48c-2.132-0.863-4.286-1.58-6.24-1.915c-0.946-0.131-1.888-0.229-2.567-0.115
		c-0.707,0.091-1.169,0.264-1.499,0.483c-0.322,0.229-0.64,0.626-0.964,1.265c-0.335,0.606-0.577,1.513-0.783,2.447
		c-0.377,1.939-0.478,4.195-0.438,6.486c0.09,4.612,0.709,9.436,1.421,14.233l2.44,16.456l-10.332-13.121
		c-1.518-1.927-3.037-3.854-4.616-5.678c-0.779-0.93-1.586-1.808-2.387-2.691l-1.213-1.296l-1.226-1.243
		c-0.824-0.806-1.657-1.583-2.499-2.281c-0.841-0.71-1.688-1.312-2.517-1.85c-0.811-0.45-1.634-0.91-2.288-1.056
		c-0.67-0.177-1.162-0.198-1.583-0.121c-0.417,0.071-0.895,0.336-1.466,0.786c-0.568,0.42-1.168,1.154-1.752,1.916
		c-1.149,1.623-2.233,3.624-3.173,5.741c-1.894,4.263-3.386,8.952-4.775,13.662l-4.184,14.181l-3.839-14.181
		c-1.283-4.74-2.569-9.49-4.333-13.852c-0.878-2.167-1.874-4.25-3.032-5.972c-0.588-0.817-1.198-1.614-1.824-2.123
		c-0.621-0.537-1.202-0.91-1.781-1.055c-0.581-0.149-1.249-0.147-2.051,0.03c-0.795,0.148-1.704,0.615-2.604,1.076
		c-0.905,0.543-1.82,1.15-2.717,1.86c-0.899,0.699-1.781,1.474-2.652,2.274c-3.477,3.248-6.699,7.02-9.829,10.851l-6.625,8.112
		l1.722-10.185c0.816-4.826,1.553-9.682,1.719-14.454c0.078-2.377,0.024-4.744-0.36-6.935c-0.216-1.071-0.474-2.135-0.915-2.998
		c-0.423-0.88-0.95-1.61-1.627-2.104c-0.68-0.49-1.541-0.783-2.526-0.894c-0.976-0.14-2.081-0.019-3.178,0.134
		c-2.222,0.382-4.493,1.148-6.72,2.043c-4.459,1.828-8.823,4.144-13.075,6.621l-5.405,3.149l3.184-5.37
		c2.51-4.234,4.949-8.526,6.865-12.973c0.944-2.22,1.765-4.488,2.205-6.75c0.185-1.12,0.327-2.257,0.194-3.295
		c-0.106-1.044-0.396-1.998-0.925-2.778c-0.535-0.778-1.333-1.384-2.267-1.86c-0.922-0.495-2.025-0.787-3.134-1.035
		c-2.258-0.444-4.667-0.545-7.079-0.513c-1.208,0.016-2.423,0.079-3.639,0.154c-1.217,0.1-2.435,0.175-3.653,0.329
		c-2.436,0.259-4.873,0.625-7.307,0.994l-6.298,0.953l5.021-3.975c3.9-3.087,7.746-6.265,11.125-9.767
		c0.837-0.877,1.637-1.782,2.376-2.71c0.748-0.925,1.404-1.885,1.999-2.854c0.519-0.979,1.046-1.971,1.255-2.939
		c0.236-0.967,0.277-1.882,0.08-2.724c-0.19-0.843-0.679-1.636-1.316-2.395c-0.619-0.769-1.498-1.446-2.39-2.095
		c-1.861-1.263-4.025-2.284-6.25-3.189c-4.479-1.795-9.258-3.127-14.052-4.361l-9.371-2.412l9.371-2.865
		c4.732-1.447,9.446-2.995,13.788-4.974c2.155-0.993,4.227-2.104,5.93-3.384c0.811-0.65,1.595-1.321,2.084-2.012
		c0.513-0.687,0.849-1.333,0.938-1.947c0.094-0.616,0.026-1.283-0.208-2.061c-0.205-0.77-0.721-1.64-1.225-2.494
		c-0.587-0.86-1.233-1.725-1.981-2.572c-0.735-0.85-1.548-1.676-2.377-2.5c-3.366-3.285-7.249-6.31-11.19-9.245l-12.12-9.024
		l15.147,1.857c4.825,0.592,9.671,1.096,14.292,1.105c2.295-0.006,4.553-0.152,6.478-0.572c0.926-0.227,1.822-0.491,2.405-0.839
		c0.616-0.337,0.977-0.66,1.166-0.964c0.182-0.312,0.318-0.744,0.373-1.421c0.078-0.647-0.048-1.562-0.2-2.48
		c-0.381-1.902-1.141-4.011-2.046-6.102c-1.834-4.206-4.246-8.418-6.735-12.571l-9.308-15.527l15.783,9.052
		c4.199,2.409,8.458,4.737,12.681,6.476c2.096,0.858,4.207,1.564,6.067,1.89c0.894,0.126,1.778,0.22,2.358,0.12
		c0.613-0.077,0.942-0.214,1.145-0.352c0.195-0.145,0.432-0.431,0.713-0.988c0.29-0.519,0.518-1.371,0.71-2.257
		c0.169-0.929,0.302-1.933,0.355-3.009c0.071-1.062,0.075-2.182,0.057-3.312c-0.095-4.549-0.716-9.35-1.432-14.127L79.902,9.665
		l12.246,15.65c3.007,3.844,6.131,7.6,9.385,10.806c0.813,0.789,1.634,1.547,2.456,2.223c0.821,0.689,1.639,1.261,2.426,1.769
		c0.76,0.416,1.531,0.84,2.077,0.949c0.566,0.143,0.905,0.142,1.166,0.097c0.254-0.042,0.603-0.233,1.089-0.62
		c0.48-0.352,1.037-1.038,1.581-1.755c1.089-1.536,2.1-3.516,2.996-5.603c1.81-4.209,3.188-8.898,4.557-13.582l5.315-18.186
		l4.966,18.186c1.286,4.708,2.675,9.395,4.449,13.628c0.886,2.098,1.885,4.092,2.973,5.652c0.545,0.73,1.103,1.431,1.596,1.804
		c0.499,0.406,0.871,0.621,1.162,0.678c0.296,0.062,0.675,0.065,1.271-0.078c0.578-0.11,1.367-0.537,2.147-0.955
		c0.804-0.509,1.636-1.083,2.469-1.772c0.835-0.676,1.665-1.435,2.488-2.223c3.293-3.203,6.444-6.951,9.48-10.786l11.449-14.459
		l-2.816,18.106c-0.744,4.783-1.395,9.591-1.519,14.177c-0.025,1.14-0.028,2.271,0.037,3.351c0.048,1.091,0.176,2.119,0.345,3.078
		c0.194,0.919,0.424,1.811,0.737,2.393c0.303,0.617,0.59,0.986,0.872,1.198c0.29,0.203,0.715,0.375,1.397,0.47
		c0.654,0.117,1.583,0.027,2.52-0.095c1.936-0.319,4.087-1.021,6.218-1.871c4.29-1.723,8.587-4.027,12.825-6.41l13.268-7.459
		l-7.873,12.854c-2.541,4.148-4.981,8.365-6.917,12.611c-0.951,2.117-1.765,4.263-2.201,6.281c-0.181,0.985-0.333,1.974-0.255,2.765
		c0.054,0.812,0.226,1.443,0.523,1.946c0.305,0.498,0.824,0.95,1.56,1.362c0.711,0.426,1.688,0.723,2.688,0.979
		c1.031,0.229,2.122,0.408,3.26,0.503c1.13,0.114,2.3,0.151,3.477,0.178c4.729,0.074,9.621-0.389,14.489-0.942l9.74-1.107
		l-7.808,5.684c-4.006,2.917-7.938,5.943-11.46,9.267c-0.869,0.837-1.717,1.69-2.5,2.578c-0.794,0.883-1.499,1.805-2.149,2.746
		c-0.576,0.954-1.166,1.926-1.445,2.913c-0.305,0.983-0.42,1.957-0.266,2.896c0.148,0.942,0.629,1.848,1.261,2.71
		c0.619,0.875,1.498,1.64,2.396,2.377c1.863,1.435,4.021,2.62,6.241,3.681c4.466,2.106,9.204,3.779,13.968,5.33l1.462,0.476
		L220.261,116.601z M218.082,116.116c-4.261-1.039-8.519-2.155-12.676-3.757c-2.383-0.936-4.748-2.001-6.986-3.475
		c-1.099-0.773-2.203-1.593-3.137-2.702c-0.935-1.079-1.767-2.4-2.125-3.936c-0.369-1.526-0.274-3.116,0.076-4.549
		c0.334-1.462,0.984-2.708,1.63-3.939c0.7-1.177,1.458-2.3,2.278-3.342c0.815-1.051,1.678-2.039,2.559-3.001
		c3.543-3.829,7.456-7.121,11.39-10.349l1.933,4.576c-4.963,0.837-9.955,1.602-15.166,1.811c-2.61,0.086-5.275,0.038-8.092-0.466
		c-1.413-0.293-2.864-0.641-4.349-1.391c-1.462-0.716-2.984-1.803-4.087-3.373c-1.099-1.567-1.634-3.389-1.815-5.039
		c-0.209-1.686-0.035-3.188,0.166-4.648c0.487-2.868,1.363-5.424,2.328-7.884c1.952-4.903,4.396-9.368,6.872-13.786l5.395,5.395
		c-4.329,2.635-8.713,5.214-13.572,7.378c-2.444,1.066-4.996,2.053-7.946,2.659c-1.509,0.259-3.072,0.495-4.894,0.326
		c-1.779-0.141-3.808-0.675-5.588-1.868c-1.785-1.194-3.039-2.868-3.864-4.448c-0.862-1.613-1.277-3.149-1.634-4.644
		c-0.625-2.963-0.752-5.715-0.766-8.399c0.013-5.353,0.59-10.429,1.237-15.477l8.633,3.647c-1.555,2.054-3.111,4.106-4.79,6.121
		c-0.819,1.014-1.696,2.009-2.569,3.006c-0.883,0.996-1.811,1.97-2.777,2.936c-0.977,0.962-1.987,1.914-3.091,2.836
		c-1.092,0.925-2.305,1.813-3.619,2.655c-1.404,0.802-2.833,1.616-4.705,2.12c-1.819,0.512-4.005,0.726-6.175,0.264
		c-2.186-0.45-4.042-1.546-5.484-2.707c-1.49-1.181-2.517-2.463-3.483-3.729c-1.821-2.541-3.072-5.039-4.183-7.544
		c-2.174-5.011-3.691-9.892-5.125-14.892h10.281c-0.68,2-1.381,4.941-2.218,7.432c-0.394,1.244-0.851,2.479-1.298,3.727
		c-0.467,1.251-0.957,2.497-1.5,3.755c-1.1,2.516-2.339,5.055-4.16,7.62c-0.966,1.279-1.994,2.574-3.497,3.775
		c-1.455,1.18-3.334,2.299-5.557,2.765c-2.206,0.478-4.431,0.268-6.281-0.246c-1.903-0.504-3.351-1.32-4.775-2.125
		c-1.331-0.843-2.558-1.733-3.662-2.659c-1.116-0.922-2.137-1.874-3.124-2.835c-0.977-0.965-1.913-1.938-2.805-2.932
		c-0.88-0.996-1.766-1.99-2.592-3.002c-1.694-2.011-3.264-4.059-4.833-6.108l9.311-3.934c0.675,5.054,1.282,10.136,1.322,15.527
		c0.002,1.353-0.021,2.718-0.135,4.133c-0.095,1.404-0.292,2.866-0.6,4.374c-0.357,1.528-0.774,3.103-1.661,4.78
		c-0.848,1.64-2.151,3.396-4.023,4.658c-1.867,1.26-3.992,1.829-5.84,1.987c-1.896,0.186-3.504-0.045-5.055-0.301
		c-3.025-0.599-5.618-1.581-8.098-2.639c-4.927-2.148-9.349-4.703-13.716-7.312l6.475-6.475c2.528,4.414,5.001,8.882,7.053,13.825
		c1.011,2.486,1.941,5.079,2.483,8.063c0.23,1.526,0.429,3.104,0.221,4.933c-0.18,1.784-0.75,3.807-1.965,5.565
		c-1.217,1.763-2.899,2.98-4.48,3.771c-1.613,0.828-3.145,1.209-4.631,1.532c-2.95,0.559-5.684,0.623-8.35,0.575
		c-5.318-0.125-10.356-0.849-15.362-1.648l3.027-7.167c3.998,3.209,7.959,6.504,11.657,10.371c0.921,0.976,1.818,1.991,2.681,3.079
		c0.867,1.079,1.683,2.259,2.446,3.516c0.717,1.331,1.44,2.68,1.849,4.358c0.422,1.638,0.563,3.536,0.134,5.385
		c-0.418,1.863-1.396,3.445-2.448,4.699c-1.064,1.292-2.263,2.207-3.449,3.067c-2.397,1.629-4.672,2.768-7.12,3.772
		C40.684,116.127,36,117.487,31,118.759v-5.277c5,1.485,9.558,3.06,14.323,5.212c2.377,1.091,4.648,2.321,6.889,3.967
		c1.104,0.862,2.164,1.769,3.099,2.984c0.929,1.182,1.73,2.617,2.047,4.251c0.326,1.625,0.147,3.273-0.273,4.722
		c-0.403,1.48-1.123,2.707-1.825,3.913c-0.756,1.149-1.565,2.234-2.432,3.234c-0.858,1.01-1.771,1.946-2.683,2.87
		c-3.685,3.649-7.684,6.792-11.723,9.85l-1.276-3.021c2.484-0.32,4.969-0.638,7.479-0.849c1.25-0.121,2.511-0.207,3.771-0.295
		c1.264-0.069,2.529-0.127,3.805-0.134c2.549-0.011,5.132,0.1,7.749,0.634c1.305,0.302,2.628,0.655,3.902,1.336
		c1.263,0.652,2.507,1.586,3.379,2.876c0.868,1.289,1.284,2.789,1.413,4.207c0.153,1.438-0.03,2.793-0.227,4.117
		c-0.484,2.625-1.354,5.06-2.325,7.416c-1.972,4.702-4.417,9.092-6.924,13.424l-2.221-2.221c4.314-2.54,8.631-5.108,13.321-7.168
		c2.349-1.021,4.781-1.943,7.445-2.486c1.348-0.229,2.734-0.433,4.235-0.287c1.476,0.125,3.069,0.537,4.459,1.444
		c1.39,0.912,2.404,2.224,3.109,3.541c0.736,1.332,1.123,2.695,1.457,4.038c0.595,2.685,0.751,5.309,0.787,7.894
		c0.016,1.293-0.019,2.573-0.065,3.852c-0.07,1.271-0.123,2.548-0.229,3.809c-0.175,2.533-0.457,5.035-0.742,7.539l-4.903-2.072
		c3.015-4.107,6.113-8.181,9.788-11.997c0.929-0.949,1.888-1.885,2.927-2.784c1.028-0.903,2.158-1.759,3.371-2.566
		c1.285-0.76,2.594-1.533,4.248-1.998c1.613-0.478,3.509-0.686,5.395-0.312c1.898,0.363,3.545,1.303,4.865,2.332
		c1.357,1.045,2.332,2.231,3.255,3.409c1.75,2.38,3.005,4.82,4.123,7.256c0.555,1.22,1.059,2.441,1.542,3.664
		c0.464,1.223,0.94,2.639,1.354,3.863c0.876,2.449,1.622,4.557,2.345,7.557h-8.023c1.33-5,2.744-10.1,4.798-15.082
		c1.056-2.484,2.223-5.104,3.983-7.582c0.927-1.234,1.912-2.53,3.327-3.664c1.371-1.117,3.121-2.188,5.18-2.623
		c2.044-0.447,4.117-0.272,5.863,0.207c1.795,0.468,3.19,1.242,4.563,2.013c1.29,0.813,2.488,1.671,3.572,2.574
		c1.096,0.9,2.104,1.832,3.081,2.777c0.966,0.949,1.898,1.905,2.781,2.891c0.875,0.986,1.754,1.97,2.576,2.975
		c1.686,1.995,3.252,4.033,4.817,6.071l-7.892,3.335c-0.68-5.032-1.288-10.094-1.334-15.42c-0.004-2.67,0.106-5.405,0.708-8.342
		c0.345-1.479,0.747-2.999,1.589-4.589c0.804-1.559,2.026-3.204,3.771-4.381c1.74-1.178,3.732-1.71,5.487-1.854
		c1.796-0.174,3.347,0.054,4.845,0.306c2.932,0.589,5.48,1.562,7.925,2.614c4.858,2.137,9.253,4.694,13.593,7.308l-5.31,5.31
		c-1.249-2.204-2.496-4.409-3.661-6.694c-0.596-1.128-1.154-2.297-1.71-3.461c-0.539-1.181-1.067-2.371-1.557-3.599
		c-0.972-2.457-1.855-5.012-2.35-7.881c-0.205-1.461-0.383-2.965-0.178-4.655c0.179-1.654,0.711-3.485,1.813-5.062
		c1.104-1.58,2.633-2.676,4.099-3.398c1.49-0.756,2.944-1.108,4.361-1.406c2.822-0.512,5.492-0.57,8.106-0.487
		c5.219,0.204,10.214,0.964,15.181,1.797l-2.012,4.761c-1.971-1.615-3.939-3.23-5.848-4.948c-0.964-0.842-1.901-1.731-2.837-2.617
		c-0.926-0.902-1.835-1.827-2.722-2.787c-0.882-0.966-1.746-1.956-2.563-3.01c-0.822-1.045-1.582-2.173-2.285-3.356
		c-0.648-1.238-1.302-2.492-1.639-3.967c-0.354-1.446-0.449-3.055-0.075-4.599c0.364-1.554,1.205-2.89,2.149-3.975
		c0.944-1.116,2.056-1.937,3.161-2.711c2.25-1.475,4.622-2.536,7.01-3.466c1.197-0.46,2.399-0.884,3.613-1.269
		c1.216-0.371,2.427-0.752,3.65-1.076C214.445,116.968,216.27,116.546,218.082,116.116z"/>
	<g>
		<path fill-rule="evenodd" fill="#0C0A0B" d="M74.646,118.286c-2.623-0.203-5.248-0.406-7.873-0.606c0-1.834,0-3.669,0-5.502
			c0.237-0.549,0.544-1.082,0.7-1.649c1.245-4.525,3.244-8.737,7.19-11.567c2.799-2.009,3.755-4.41,3.972-7.562
			c0.345-4.982,2.065-9.537,5.884-13.092c1.783-1.657,3.829-3.051,5.692-4.515c-2.193-1.584-4.548-3.207-6.796-4.953
			c-0.664-0.516-1.028-1.381-1.55-2.073c-0.303-0.403-0.645-0.779-0.975-1.164C80,64.556,78.829,63.63,78.266,62.44
			c-1.106-2.347-3.235-4.278-3.244-7.09c0-0.2-0.232-0.391-0.308-0.603c-0.512-1.432-1.037-2.858-1.504-4.305
			c-0.295-0.921-0.513-1.867-0.735-2.809c-0.138-0.594-0.328-1.205-0.303-1.8c0.069-1.539,0.26-3.074,0.375-4.611
			c0.122-1.626,0.867-2.869,2.458-3.482c2.28-0.877,4.567-1.753,6.908-2.454c1.281-0.382,2.885-0.048,3.975-0.652
			c2.618-1.453,5.522-1.174,8.282-1.671c0.963-0.174,1.135-0.554,1.232-1.258c1.909,0,3.815,0,5.724,0
			c1.102,0.363,2.179,0.827,3.307,1.07c2.815,0.605,5.669,1.045,8.475,1.695c0.873,0.202,1.644,0.843,2.434,1.325
			c0.447,0.271,0.798,0.838,1.259,0.914c4.349,0.727,6.539,3.844,8.601,7.094c0.696,1.095,1.262,2.267,1.878,3.389
			c0.15-0.048,0.236-0.051,0.256-0.088c0.19-0.349,0.376-0.701,0.55-1.058c2.105-4.284,4.806-7.735,9.835-9.513
			c2.344-0.83,4.621-1.835,7.047-2.624c2.46-0.8,4.842-1.315,7.372-1.547c0.428-0.04,0.821-0.429,1.233-0.656
			c1.788,0,3.578,0,5.365,0c0.153,0.42,0.302,0.842,0.401,1.117c1.302,0.221,2.506,0.51,3.727,0.614
			c2.344,0.197,4.523,0.058,6.836,1.484c2.439,1.504,5.707,1.781,8.623,2.555c2.577,0.683,3.62,2.112,3.39,4.662
			c-0.076,0.841-0.035,1.692-0.019,2.538c0.021,1.119,0.267,2.271,0.071,3.351c-0.872,4.736-2.844,9.03-5.131,13.338
			c-2.925,5.506-7.915,8.736-12.48,12.594c0.146,0.12,0.354,0.329,0.6,0.479c7.244,4.483,11.123,10.766,11.263,19.135
			c0.027,1.743,0.735,3.29,2.313,4.439c4.696,3.421,7.595,7.953,8.71,13.523c0.227,1.132,0.456,2.264,0.683,3.394
			c0,0.688,0,1.377,0,2.065c-0.123,0.334-0.254,0.67-0.368,1.011c-0.963,2.854-1.378,6.047-3.007,8.487
			c-2.852,4.268-4.621,8.832-6.007,13.626c-1.305,4.516-2.711,8.994-6.004,12.639c-0.479,0-0.954,0-1.433,0
			c-0.709-0.296-1.399-0.66-2.135-0.878c-12.957-3.824-25.175-9.376-37.458-14.771c-2.107-0.927-4.157-1.967-6.231-2.956
			c0.738,0.173,1.524,0.244,2.208,0.534c5.168,2.194,10.315,4.43,15.464,6.647c1.549-2.64,1.794-5.872,0.728-9.034
			c-3.562-10.541-18.28-14.126-27.239-6.607c-0.995,0.833-1.849,1.818-2.875,2.838c0.784,0.413,1.247,0.661,1.709,0.905
			c0.003,0.199,0.008,0.399,0.011,0.604c-7.482-2.667-14.925-5.439-22.464-7.949c-3.511-1.171-7.204-1.841-10.816-2.741
			c0.001-0.171,0.006-0.347,0.007-0.521c0.519,0.04,1.039,0.079,1.596,0.122c1.087-5.24,1.912-10.402,0.521-15.647
			c-0.547-2.061-1.209-2.379-3.083-1.263c-5.505,3.275-8,8.043-7.686,14.247c0.053,1.036,0.48,1.435,1.471,1.457
			C74.639,117.924,74.644,118.104,74.646,118.286z M168.284,150.062c4.018,1.352,3.371,1.699,5.103-1.628
			c1.68-3.232,2.765-6.779,3.887-10.256c1.396-4.333,3.116-8.432,5.701-12.302c5.063-7.567,4.043-18.868-4.783-26.047
			c-2.474-2.014-3.637-4.162-3.792-7.146c-0.31-5.923-2.527-11.012-7.502-14.772c-1.22-0.919-2.476-1.79-3.693-2.712
			c-1.839-1.393-1.73-2.041,0.381-2.939c0.64-0.271,1.243-0.662,1.785-1.089c1.093-0.858,2.124-1.789,3.193-2.673
			c0.72-0.595,1.563-1.08,2.183-1.756c4.348-4.743,7.254-10.25,8.975-16.315c0.58-2.054,1.212-4.178,0.301-6.378
			c-0.233-0.559,0.068-1.335,0.163-2.006c0.224-1.528-0.389-2.569-1.927-3.048c-4.226-1.313-8.451-2.617-12.684-3.907
			c-0.327-0.1-0.694-0.071-1.125-0.108c-0.281,1.619-0.975,1.681-2.027,0.573c-0.292-0.307-0.751-0.651-1.14-0.658
			c-4.497-0.083-8.994-1.315-13.509,0.185c-1.596,0.528-3.404,0.435-5.097,0.724c-0.736,0.125-1.452,0.443-2.13,0.767
			c-1.353,0.646-2.694,1.322-4,2.051c-0.971,0.542-2.12,1.007-2.768,1.819c-1.686,2.115-3.14,4.399-4.68,6.621
			c-0.64,0.922-1.255,1.857-1.881,2.787c-0.649-0.89-1.563-1.698-1.903-2.685c-2.043-5.926-7.257-8.515-12.457-11.117
			c-0.585-0.292-1.388-0.2-2.091-0.247c-0.529-0.037-1.097,0.104-1.592-0.031c-4.585-1.258-9.241-1.649-13.996-1.341
			c-1.521,0.099-2.943,0.036-4.01,1.364c-0.197,0.243-1.427,0.139-1.459,0.02c-0.337-1.284-1.429-0.842-1.729-0.415
			c-0.983,1.402-2.4,1.123-3.696,1.089c-2.301-0.06-3.911,1.522-5.918,2.097c-3.866,1.106-3.881,1.049-4.306,4.958
			c-0.08,0.74-0.247,1.472-0.316,2.21c-0.035,0.379-0.044,0.812,0.107,1.146c1.208,2.646,1.339,5.554,2.553,8.287
			c1.134,2.543,2.637,4.908,3.721,7.465c0.291,0.682,1.151,1.123,1.666,1.738c1.792,2.136,3.647,4.103,6.126,5.656
			c1.319,0.827,2.244,2.258,4.038,2.453c1.152,0.124,1.275,0.729,0.659,1.52c-0.346,0.443-0.79,0.88-1.291,1.145
			c-7.383,3.925-11.026,10.009-11.348,18.029c-0.105,2.626-1.264,4.579-3.484,6.229c-5.663,4.208-7.846,10.084-8.298,16.915
			c1.227,0.086,2.247,0.157,3.252,0.23c0.119-1.511,0.134-2.825,0.338-4.115c0.876-5.471,3.959-9.472,8.987-12.086
			c2.142-1.117,4.001-0.446,4.428,1.707c0.5,2.511,0.907,5.083,0.907,7.628c0.001,2.94-0.484,5.88-0.763,8.86
			c2.936,0.756,5.876,1.513,9.116,2.343c-2.443-3.077-4.485-6.03-4.396-9.697c0.208-8.481,3.969-15.05,12.071-18.776
			c9.781-4.501,21.318-0.3,22.384,11.601c0.671,7.521-2.988,13.57-9.56,17.668c-2.5,1.558-5.522,2.352-8.221,3.458
			c1.671,0.659,3.618,1.426,5.604,2.207c0.354-0.381,0.666-0.716,0.973-1.059c5.677-6.268,15.328-7.896,23.336-3.934
			c7.279,3.604,10.199,10.352,8.135,18.953c0.663,0.283,1.345,0.571,2.173,0.925c1.876-4.712,5.019-8.457,8.906-11.518
			c2.306-1.815,4.998-3.293,7.729-4.47c3.034-1.301,6.607,0.054,7.742,2.752c1.576,3.736,2.568,7.58,1.581,11.707
			C172.086,144.166,170.652,147.297,168.284,150.062z M123.061,105.368c0.033-8.736-7.437-14.625-16.345-12.879
			c-7.906,1.55-13.89,8.063-14.927,16.25c-1.024,8.098,4.893,14.513,13.359,14.479C114.438,123.181,123.024,114.626,123.061,105.368
			z M171.77,136.302c-0.249-1.028-0.631-2.985-1.202-4.891c-1.153-3.873-3.811-5.097-7.618-3.369
			c-6.551,2.975-11.144,7.842-14.252,14.078c-0.524,1.048-0.386,1.586,0.835,2.022c5.009,1.798,9.999,3.642,14.95,5.571
			c1.185,0.462,1.85,0.19,2.587-0.653C170.058,145.647,171.519,141.693,171.77,136.302z"/>
		<path fill-rule="evenodd" fill="#C2085D" d="M115.078,129.436c-0.462-0.244-0.925-0.492-1.709-0.905
			c1.025-1.02,1.879-2.006,2.875-2.838c8.958-7.519,23.677-3.934,27.239,6.607c1.066,3.162,0.821,6.394-0.728,9.034
			c-5.149-2.218-10.296-4.453-15.464-6.647c-0.684-0.29-1.47-0.361-2.208-0.534l0.047,0.02c-0.318-0.104-0.632-0.214-0.951-0.318
			c-0.641-0.359-1.278-0.72-1.918-1.077C119.868,131.659,117.472,130.55,115.078,129.436z"/>
		<path fill-rule="evenodd" fill="#23151C" d="M115.078,129.436c2.394,1.114,4.79,2.223,7.183,3.34
			c-2.39-0.915-4.782-1.827-7.172-2.737C115.086,129.835,115.082,129.634,115.078,129.436z"/>
		<path fill-rule="evenodd" fill="#260B17" d="M81.815,118.828c-0.001,0.174-0.005,0.35-0.007,0.521
			c-2.386-0.353-4.773-0.707-7.162-1.063c-0.002-0.182-0.007-0.362-0.01-0.544C77.029,118.104,79.423,118.466,81.815,118.828z"/>
		<path fill-rule="evenodd" fill="#0C0A0B" d="M124.179,133.853c0.318,0.104,0.633,0.214,0.951,0.318
			C124.811,134.067,124.498,133.958,124.179,133.853z"/>
		<path fill-rule="evenodd" d="M168.284,150.062c2.368-2.765,3.802-5.896,4.631-9.346c0.987-4.127-0.005-7.97-1.581-11.707
			c-1.135-2.698-4.708-4.053-7.742-2.752c-2.73,1.177-5.423,2.655-7.729,4.47c-3.888,3.061-7.03,6.806-8.906,11.518
			c-0.828-0.354-1.51-0.642-2.173-0.925c2.064-8.601-0.855-15.349-8.135-18.953c-8.008-3.961-17.659-2.333-23.336,3.934
			c-0.307,0.342-0.619,0.678-0.973,1.059c-1.986-0.78-3.933-1.547-5.604-2.207c2.699-1.105,5.721-1.899,8.221-3.458
			c6.571-4.098,10.231-10.147,9.56-17.668c-1.066-11.901-12.603-16.102-22.384-11.601c-8.102,3.726-11.863,10.295-12.071,18.776
			c-0.09,3.667,1.953,6.62,4.396,9.697c-3.24-0.83-6.18-1.587-9.116-2.343c0.279-2.98,0.764-5.92,0.763-8.86
			c0-2.545-0.407-5.117-0.907-7.628c-0.427-2.153-2.286-2.823-4.428-1.707c-5.028,2.614-8.111,6.615-8.987,12.086
			c-0.204,1.29-0.219,2.604-0.338,4.115c-1.006-0.073-2.026-0.145-3.252-0.23c0.452-6.83,2.635-12.707,8.298-16.915
			c2.221-1.65,3.379-3.604,3.484-6.229c0.321-8.02,3.965-14.104,11.348-18.029c0.501-0.265,0.945-0.702,1.291-1.145
			c0.616-0.791,0.493-1.396-0.659-1.52c-1.793-0.195-2.719-1.626-4.038-2.453c-2.479-1.554-4.334-3.521-6.126-5.656
			c-0.515-0.616-1.375-1.056-1.666-1.738c-1.084-2.557-2.586-4.922-3.721-7.465c-1.213-2.733-1.344-5.641-2.553-8.287
			c-0.151-0.334-0.142-0.768-0.107-1.146c0.069-0.739,0.236-1.47,0.316-2.21c0.425-3.908,0.439-3.852,4.306-4.958
			c2.007-0.574,3.617-2.156,5.918-2.097c1.296,0.034,2.713,0.313,3.696-1.089c0.3-0.428,1.392-0.87,1.729,0.415
			c0.033,0.119,1.262,0.223,1.459-0.02c1.067-1.328,2.489-1.265,4.01-1.364c4.755-0.308,9.411,0.083,13.996,1.341
			c0.495,0.135,1.063-0.005,1.592,0.031c0.703,0.047,1.506-0.044,2.091,0.247c5.2,2.602,10.414,5.19,12.457,11.117
			c0.34,0.987,1.254,1.795,1.903,2.685c0.625-0.929,1.241-1.865,1.881-2.787c1.54-2.222,2.994-4.506,4.68-6.621
			c0.648-0.812,1.797-1.278,2.768-1.819c1.305-0.729,2.647-1.404,4-2.051c0.678-0.323,1.394-0.642,2.13-0.767
			c1.692-0.289,3.501-0.195,5.097-0.724c4.515-1.5,9.012-0.267,13.509-0.185c0.389,0.007,0.848,0.352,1.14,0.658
			c1.053,1.107,1.746,1.046,2.027-0.573c0.431,0.037,0.798,0.008,1.125,0.108c4.232,1.29,8.458,2.594,12.684,3.907
			c1.538,0.479,2.15,1.52,1.927,3.048c-0.095,0.671-0.396,1.448-0.163,2.006c0.911,2.2,0.279,4.324-0.301,6.378
			c-1.721,6.066-4.627,11.573-8.975,16.315c-0.619,0.676-1.463,1.161-2.183,1.756c-1.069,0.884-2.101,1.815-3.193,2.673
			c-0.542,0.427-1.146,0.817-1.785,1.089c-2.111,0.898-2.22,1.546-0.381,2.939c1.218,0.922,2.474,1.793,3.693,2.712
			c4.975,3.761,7.192,8.849,7.502,14.772c0.155,2.984,1.318,5.133,3.792,7.146c8.826,7.179,9.846,18.48,4.783,26.047
			c-2.585,3.87-4.305,7.969-5.701,12.302c-1.122,3.477-2.207,7.023-3.887,10.256C171.655,151.761,172.302,151.413,168.284,150.062z
			 M138.681,42.133c-0.745-0.581-1.283-1.177-1.963-1.467c-0.395-0.167-1.344,0.007-1.483,0.286
			c-1.691,3.391-3.446,6.767-4.841,10.274c-1.377,3.452-0.384,6.508,2.564,8.943c1.927,1.591,2.775,1.666,4.919,0.366
			c3.771-2.287,7.538-4.575,11.316-6.854c0.468-0.283,0.973-0.507,1.463-0.758c-0.218,0.663-0.635,1.022-1.088,1.335
			c-3.043,2.102-6.109,4.176-9.142,6.295c-3.476,2.428-3.654,3.925-0.919,7.155c0.188,0.222,0.387,0.437,0.603,0.633
			c4.533,4.128,10.051,5.158,16.021,4.585c0.517-0.048,0.959-0.816,1.435-1.25c1.221-0.549,2.68-0.872,4.156-0.999
			c1.56-0.135,2.587-0.425,1.229-2.127c1.575-0.565,2.976-1.044,4.348-1.576c0.479-0.185,1.274-0.515,1.267-0.759
			c-0.015-0.494-0.481-0.974-0.797-1.522c1.277-0.757,2.598-1.525,3.903-2.312c1.626-0.979,1.613-1.293-0.056-2.209
			c0.058-0.095,0.093-0.217,0.177-0.283c0.682-0.553,1.401-1.066,2.051-1.651c0.502-0.453,1.189-0.951,1.28-1.508
			c0.064-0.39-0.733-0.911-1.024-1.236c0.628-0.669,1.375-1.409,2.052-2.203c0.434-0.508,0.764-1.098,1.142-1.65
			c-0.622-0.315-1.244-0.63-1.842-0.932c3.242-3.3,3.384-4.101,0.682-4.828c0.46-0.817,0.907-1.616,1.358-2.415
			c0.874-1.557,0.712-1.823-1.188-1.844c-1.405-0.016-2.813-0.003-4.266-0.003c0.034-0.325,0.02-0.5,0.075-0.65
			c0.759-2.029,0.664-2.147-1.506-1.988c-1.713,0.126-3.429,0.224-5.293,0.343c0.673-2.002-0.332-2.098-1.795-1.747
			c-1.07,0.257-2.162,0.443-3.075,0.628c-0.074-0.728-0.132-1.299-0.189-1.872c-0.562,0.065-1.149,0.052-1.68,0.213
			c-1.328,0.403-2.631,0.884-3.844,1.299c-0.193-0.683-0.343-1.2-0.49-1.718c-0.543,0.15-1.14,0.208-1.62,0.468
			c-1.153,0.625-2.255,1.344-3.392,2.035c-1.006-2.13-1.011-2.137-2.775-0.878c-0.796,0.571-1.563,1.177-2.431,1.833
			c-0.157-0.293-0.261-0.48-0.357-0.671c-0.851-1.702-1.171-1.737-2.345-0.225C140.467,39.784,139.629,40.891,138.681,42.133z
			 M110.459,39.514c-0.827-0.606-1.531-1.115-2.228-1.632c-1.997-1.485-1.996-1.487-2.898,0.747
			c-1.369-0.778-2.736-1.526-4.069-2.324c-0.757-0.455-1.213-0.375-1.378,0.522c-0.062,0.361-0.125,0.722-0.212,1.224
			c-1.078-0.453-1.989-0.863-2.92-1.217c-0.866-0.327-1.757-0.593-2.925-0.981c0.157,1.082,0.243,1.67,0.34,2.336
			c-1.133-0.225-2.167-0.437-3.206-0.637c-2.013-0.39-2.067-0.34-1.88,1.693c-1.792-0.087-3.57-0.162-5.349-0.266
			c-1.946-0.113-2.083,0.076-1.293,1.863c0.085,0.192,0.075,0.422,0.142,0.832c-1.99,0-3.863,0-6.226,0
			c0.854,1.673,1.548,3.026,2.274,4.447c-0.373,0.042-0.573,0.016-0.716,0.089c-0.681,0.342-1.35,0.709-2.023,1.069
			c0.402,0.542,0.727,1.17,1.23,1.606c0.75,0.648,1.628,1.162,2.702,1.907c-0.645,0.111-0.896,0.106-1.096,0.199
			c-0.549,0.251-1.08,0.544-1.617,0.82c0.327,0.441,0.592,0.942,0.992,1.311c0.888,0.822,1.838,1.578,2.793,2.383
			c-1.815,1.196-1.825,1.349-0.283,2.616c0.809,0.666,1.615,1.335,2.429,2.01c-1.422,1.272-1.399,1.458,0.241,2.438
			c1.2,0.716,2.402,1.425,3.638,2.157c-1.349,1.194-1.3,1.525,0.228,2.134c1.478,0.589,2.969,1.147,4.545,1.753
			c-0.989,1.497-0.246,1.926,1.209,2.07c1.416,0.141,2.814,0.441,4.251,0.677c-0.829,1.549,0.261,1.817,1.418,1.885
			c4.298,0.254,8.414-0.486,12.292-2.303c2.414-1.131,4.337-2.796,5.548-5.145c0.99-1.918,0.87-2.837-0.858-4.17
			c-3.505-2.707-7.075-5.336-10.686-8.046c0.612,0.208,1.293,0.315,1.83,0.643c3.666,2.232,7.332,4.47,10.927,6.803
			c0.923,0.597,1.599,0.712,2.574,0.179c3.525-1.929,5.077-5.087,4.392-8.958c-0.716-4.042-2.974-7.274-5.582-10.381
			c-1.116-1.329-2.003-1.655-3.051,0.047c-0.908-1.013-1.737-1.911-2.535-2.832C111.846,37.27,111.67,37.278,110.459,39.514z
			 M129.81,104.481c0,8.918,6.717,16.927,15.998,19.083c8.956,2.076,17.406-3.648,18.354-12.435
			c0.931-8.592-4.985-17.177-14.002-20.318C139.517,87.101,129.811,93.624,129.81,104.481z M127.233,91.31
			c0.038-0.149,0.076-0.299,0.113-0.449c3.963,0.121,8.92-0.994,12.207-2.743c4.845-2.58,5.508-6.23,1.851-10.227
			c-0.313-0.344-0.64-0.683-0.989-0.994c-7.469-6.624-20.52-6.227-27.565,0.833c-2.906,2.915-2.834,6.192,0.346,8.799
			c1.158,0.949,2.489,1.895,3.912,2.319C120.428,89.838,123.851,90.51,127.233,91.31z M150.058,75.215
			c-1.806,0.304-3.628,0.544-5.402,0.965c-0.357,0.083-0.881,1.033-0.743,1.285c0.798,1.445,1.574,2.98,2.727,4.147
			c2.205,2.235,4.672,4.23,7.007,6.35c3.741,3.398,7.905,6.208,12.537,8.372c2.058,0.961,3.393,0.281,3.567-1.91
			c0.072-0.961,0.043-1.953-0.111-2.903C168.05,81.805,160.813,75.854,150.058,75.215z M181.251,114.936
			c-0.065-0.567-0.149-1.706-0.337-2.833c-0.882-5.352-3.755-9.423-8.645-12.134c-1.979-1.096-3.944-0.717-4.419,1.104
			c-0.731,2.806-1.53,5.741-1.381,8.577c0.196,3.79,1.195,7.551,2.005,11.295c0.537,2.475,1.492,4.833,3.6,6.542
			c1.594,1.296,2.746,1.245,4.18-0.216C179.488,123.973,181.222,120.075,181.251,114.936z M83.463,96.894
			c2.083-0.83,4.184-1.278,5.792-2.383c4.597-3.159,9.073-6.493,13.435-9.948c2.05-1.625,3.821-3.608,5.521-5.585
			c0.546-0.636,0.837-1.897,0.561-2.635c-0.232-0.612-1.463-1.212-2.261-1.227c-2.783-0.044-5.645-0.179-8.348,0.345
			C88.595,77.311,81.705,85.831,83.463,96.894z"/>
		<path fill-rule="evenodd" fill="#C2085D" d="M123.061,105.368c-0.037,9.259-8.623,17.813-17.913,17.849
			c-8.466,0.034-14.383-6.381-13.359-14.479c1.037-8.187,7.021-14.7,14.927-16.25C115.624,90.743,123.094,96.632,123.061,105.368z"
			/>
		<path fill-rule="evenodd" fill="#C2085D" d="M171.77,136.302c-0.251,5.392-1.712,9.346-4.7,12.759
			c-0.737,0.844-1.402,1.115-2.587,0.653c-4.951-1.93-9.941-3.773-14.95-5.571c-1.221-0.437-1.359-0.975-0.835-2.022
			c3.108-6.236,7.701-11.104,14.252-14.078c3.808-1.728,6.465-0.504,7.618,3.369C171.139,133.317,171.521,135.274,171.77,136.302z"
			/>
		<path fill-rule="evenodd" fill="#C1085D" d="M81.815,118.828c-2.393-0.362-4.787-0.724-7.179-1.086
			c-0.991-0.021-1.418-0.421-1.471-1.457c-0.315-6.203,2.18-10.972,7.686-14.247c1.873-1.116,2.536-0.798,3.083,1.263
			c1.39,5.245,0.565,10.407-0.521,15.647C82.854,118.907,82.334,118.868,81.815,118.828z"/>
		<path fill-rule="evenodd" fill="#080A06" d="M138.681,42.133c0.948-1.242,1.786-2.349,2.637-3.443
			c1.174-1.512,1.494-1.477,2.345,0.225c0.097,0.19,0.2,0.378,0.357,0.671c0.867-0.656,1.635-1.262,2.431-1.833
			c1.765-1.259,1.77-1.251,2.775,0.878c1.137-0.691,2.238-1.41,3.392-2.035c0.48-0.26,1.077-0.318,1.62-0.468
			c0.147,0.518,0.297,1.035,0.49,1.718c1.213-0.415,2.516-0.896,3.844-1.299c0.53-0.161,1.118-0.147,1.68-0.213
			c0.058,0.572,0.115,1.144,0.189,1.872c0.913-0.185,2.005-0.372,3.075-0.628c1.463-0.351,2.468-0.255,1.795,1.747
			c1.864-0.119,3.58-0.216,5.293-0.343c2.17-0.16,2.265-0.042,1.506,1.988c-0.056,0.149-0.041,0.325-0.075,0.65
			c1.452,0,2.86-0.013,4.266,0.003c1.9,0.021,2.063,0.287,1.188,1.844c-0.451,0.798-0.898,1.597-1.358,2.415
			c2.702,0.727,2.561,1.527-0.682,4.828c0.598,0.302,1.22,0.617,1.842,0.932c-0.378,0.553-0.708,1.142-1.142,1.65
			c-0.677,0.794-1.424,1.534-2.052,2.203c0.291,0.326,1.089,0.846,1.024,1.236c-0.091,0.557-0.778,1.055-1.28,1.508
			c-0.649,0.585-1.369,1.099-2.051,1.651c-0.084,0.066-0.119,0.188-0.177,0.284c1.669,0.915,1.682,1.229,0.056,2.208
			c-1.306,0.787-2.626,1.555-3.903,2.312c0.315,0.548,0.782,1.028,0.797,1.522c0.008,0.245-0.787,0.575-1.267,0.759
			c-1.372,0.532-2.772,1.011-4.348,1.576c1.358,1.702,0.331,1.993-1.229,2.127c-1.477,0.127-2.936,0.45-4.156,0.999
			c-0.476,0.434-0.918,1.201-1.435,1.25c-5.97,0.573-11.487-0.457-16.021-4.585c-0.216-0.197-0.415-0.412-0.603-0.633
			c-2.735-3.229-2.556-4.727,0.919-7.155c3.032-2.119,6.099-4.193,9.142-6.295c0.453-0.313,0.87-0.672,1.088-1.335
			c-0.49,0.251-0.995,0.476-1.463,0.758c-3.778,2.278-7.545,4.566-11.316,6.854c-2.144,1.299-2.992,1.225-4.919-0.366
			c-2.949-2.435-3.941-5.491-2.564-8.943c1.395-3.507,3.15-6.883,4.841-10.274c0.139-0.279,1.089-0.453,1.483-0.286
			C137.398,40.956,137.936,41.552,138.681,42.133z M157.915,38.477c-1.071,0.337-2.177,0.602-3.208,1.032
			c-1.221,0.511-1.91,0.302-1.887-1.248c-1.172,0.705-2.176,1.218-3.072,1.866c-1.532,1.105-1.839-0.214-2.232-1.058
			c-1.888,0.443-2.807,3.901-5.306,1.08c-0.906,1.154-1.635,2.285-2.566,3.226c-1.578,1.592-2.141-1-3.765-0.833
			c-1.316,2.984-2.853,6.081-4.048,9.294c-1.01,2.714-0.28,5.149,2.072,7.122c1.113,0.934,1.99,1.149,3.269,0.244
			c8.017-5.673,16.952-9.706,26.106-13.339c0.71-0.282,1.343-0.566,1.762,0.358c0.401,0.883,0.082,1.354-0.84,1.69
			c-1.277,0.464-2.517,1.032-3.745,1.604c-6.754,3.142-12.444,7.819-18.557,11.887c-3.301,2.198-3.366,3.384-0.439,6.131
			c0.634,0.595,1.353,1.142,2.119,1.561c3.392,1.851,7.031,2.75,10.893,2.498c1.271-2.901,4.397-1.188,6.124-2.402
			c0.408-2.877,3.461-1.908,4.737-3.297c-0.41-2.955,3.129-2.459,4.136-4.333c-1.253-0.637-0.697-1.277,0.108-1.919
			c1.044-0.831,2.074-1.675,3.142-2.54c-1.915-1.235-1.915-1.299-0.3-2.585c0.768-0.611,1.519-1.241,2.227-1.82
			c-0.678-0.406-1.714-0.784-1.685-1.057c0.069-0.655,0.554-1.332,1.028-1.87c0.557-0.628,1.283-1.119,2.009-1.731
			c-2.221-0.871-2.219-0.868-1.199-2.85c0.334-0.651,0.646-1.311,1.089-2.207c-2.041,0-3.802,0-5.726,0
			c0.062-0.878,0.108-1.577,0.155-2.246c-1.582,0-3.088-0.157-4.541,0.044c-1.424,0.199-2.469,0.209-2.515-1.567
			c-1.314,0.261-2.474,0.507-3.64,0.719c-1.008,0.182-1.68-0.051-1.473-1.234c0.011-0.125,0.021-0.248,0.036-0.372
			C158.094,38.376,158.006,38.426,157.915,38.477z"/>
		<path fill-rule="evenodd" fill="#090A07" d="M110.459,39.514c1.211-2.236,1.387-2.244,2.963-0.433
			c0.798,0.921,1.626,1.819,2.535,2.832c1.048-1.702,1.935-1.375,3.051-0.047c2.608,3.107,4.866,6.338,5.582,10.381
			c0.685,3.871-0.867,7.03-4.392,8.958c-0.975,0.533-1.651,0.418-2.574-0.179c-3.596-2.333-7.262-4.57-10.927-6.803
			c-0.537-0.328-1.218-0.436-1.83-0.643c3.61,2.71,7.181,5.339,10.686,8.046c1.728,1.333,1.848,2.252,0.858,4.17
			c-1.211,2.349-3.134,4.014-5.548,5.145c-3.878,1.817-7.995,2.557-12.292,2.303c-1.158-0.068-2.248-0.336-1.418-1.885
			c-1.438-0.235-2.835-0.536-4.251-0.677c-1.455-0.144-2.198-0.573-1.209-2.07c-1.576-0.606-3.067-1.164-4.545-1.753
			c-1.528-0.608-1.577-0.939-0.228-2.134c-1.236-0.732-2.438-1.44-3.638-2.157c-1.64-0.979-1.663-1.166-0.241-2.438
			c-0.814-0.674-1.62-1.344-2.429-2.01c-1.542-1.267-1.532-1.419,0.283-2.616c-0.955-0.805-1.905-1.561-2.793-2.383
			c-0.4-0.369-0.665-0.87-0.992-1.311c0.538-0.276,1.068-0.569,1.617-0.82c0.201-0.093,0.452-0.088,1.096-0.199
			c-1.074-0.746-1.952-1.259-2.702-1.907c-0.504-0.437-0.828-1.064-1.23-1.606c0.673-0.359,1.343-0.727,2.023-1.069
			c0.144-0.073,0.343-0.047,0.716-0.089c-0.727-1.421-1.42-2.773-2.274-4.447c2.363,0,4.236,0,6.226,0
			c-0.067-0.41-0.057-0.64-0.142-0.832c-0.79-1.787-0.652-1.976,1.293-1.863c1.779,0.104,3.558,0.178,5.349,0.266
			c-0.187-2.034-0.133-2.083,1.88-1.693c1.038,0.2,2.072,0.412,3.206,0.637c-0.097-0.666-0.183-1.254-0.34-2.336
			c1.168,0.388,2.059,0.654,2.925,0.981c0.931,0.354,1.843,0.764,2.92,1.217c0.088-0.502,0.151-0.863,0.212-1.224
			c0.165-0.897,0.621-0.977,1.378-0.522c1.333,0.798,2.7,1.546,4.069,2.324c0.902-2.234,0.901-2.232,2.898-0.747
			C108.928,38.398,109.633,38.907,110.459,39.514z M99.329,72.077c0.727,0.082,1.276,0.283,1.752,0.174
			c2.28-0.525,4.578-1.022,6.799-1.741c3.002-0.97,5.574-2.538,7.112-5.382c0.57-1.061,0.476-1.765-0.554-2.464
			c-4.463-3.037-8.885-6.126-13.347-9.165c-1.7-1.156-3.495-2.184-5.161-3.377c-0.328-0.233-0.462-1.023-0.318-1.441
			c0.086-0.255,0.87-0.386,1.344-0.396c0.388-0.006,0.782,0.248,1.17,0.39c6.724,2.464,12.875,5.918,18.709,9.926
			c2.381,1.636,3.484,1.474,5.147-0.901c0.484-0.693,0.917-1.53,1.017-2.341c0.649-5.193-2.207-8.988-5.525-12.797
			c-1.108,1.797-2.009,1.325-2.955,0.127c-0.714-0.902-1.532-1.729-2.505-2.815c-0.541,2.423-1.642,1.63-2.787,0.719
			c-0.63-0.5-1.299-0.956-1.994-1.465c-2.23,2.845-3.617-0.726-5.373-0.432c-1.825,2.234-3.518-0.145-5.116-0.061
			c-1.453,2.796-3.57,0.143-5.263,0.76c-0.297,1.328-0.297,1.311-1.913,1.292c-1.717-0.022-3.437-0.006-5.161-0.006
			c0.142,2.381,0.142,2.381-2.401,2.381c-0.972,0-1.945,0-3.107,0c0.485,0.942,0.821,1.603,1.162,2.262
			c1.085,2.102,1.048,2.18-1.465,2.658c0.923,0.638,1.736,1.185,2.533,1.754c1.166,0.833,1.109,1.644-0.171,2.292
			c-0.341,0.173-0.729,0.262-1.211,0.43c0.829,0.705,1.533,1.313,2.25,1.913c1.68,1.406,1.68,1.438,0.057,2.62
			c0.521,1.799,3.987,1.835,3.039,4.834c1.014,0.608,2.252,1.396,3.537,2.1c0.964,0.529,1.323,1.117,0.56,1.876
			c1.245,1.488,4.392,0.417,4.42,3.37c0.209,0.062,0.433,0.156,0.663,0.191c1.292,0.199,2.585,0.385,3.876,0.574
			C99.395,70.121,100.566,70.35,99.329,72.077z"/>
		<path fill-rule="evenodd" fill="#0C0709" d="M129.81,104.481c0.001-10.857,9.707-17.38,20.35-13.67
			c9.017,3.142,14.933,11.726,14.002,20.318c-0.948,8.787-9.398,14.511-18.354,12.435
			C136.527,121.409,129.81,113.399,129.81,104.481z M131.518,104.556c0,0.857-0.009,1.716,0.004,2.573
			c0.002,0.228,0.043,0.459,0.109,0.679c2.064,6.881,6.239,11.847,13.588,14.038c7.272,2.173,14.44-1.323,16.803-8.278
			c3.401-10.026-6.271-22.231-17.687-22.367C138.439,91.129,130.856,96.018,131.518,104.556z"/>
		<path fill-rule="evenodd" fill="#0C0609" d="M127.233,91.31c-3.383-0.8-6.805-1.472-10.125-2.462
			c-1.423-0.424-2.754-1.37-3.912-2.319c-3.18-2.607-3.252-5.884-0.346-8.799c7.045-7.06,20.096-7.456,27.565-0.833
			c0.35,0.311,0.676,0.649,0.989,0.994c3.657,3.997,2.994,7.647-1.851,10.227c-3.287,1.75-8.243,2.864-12.207,2.743
			C127.309,91.011,127.271,91.161,127.233,91.31z M127.494,73.62c-5.533-0.014-9.687,1.75-13.219,4.905
			c-2.718,2.428-2.613,4.777,0.218,7.112c0.405,0.333,0.833,0.667,1.302,0.898c7.996,3.925,15.994,3.949,23.843-0.279
			c3.009-1.62,3.336-3.954,1.2-6.602C137.307,75.273,132.336,73.868,127.494,73.62z"/>
		<path fill-rule="evenodd" fill="#0E070A" d="M150.058,75.215c10.755,0.639,17.992,6.59,19.581,16.306
			c0.154,0.951,0.184,1.942,0.111,2.903c-0.175,2.191-1.51,2.871-3.567,1.91c-4.632-2.164-8.796-4.974-12.537-8.372
			c-2.335-2.12-4.802-4.115-7.007-6.35c-1.152-1.167-1.929-2.703-2.727-4.147c-0.138-0.252,0.386-1.201,0.743-1.285
			C146.43,75.759,148.252,75.519,150.058,75.215z M145.819,77.383c1.173,4.108,16.59,16.422,22.012,17.774
			c1.202-3.935-1.243-10.387-5.489-13.929C157.561,77.246,151.96,76.36,145.819,77.383z"/>
		<path fill-rule="evenodd" fill="#0E070A" d="M181.251,114.936c-0.029,5.139-1.763,9.037-4.997,12.334
			c-1.434,1.461-2.586,1.512-4.18,0.216c-2.107-1.709-3.063-4.067-3.6-6.542c-0.81-3.744-1.809-7.505-2.005-11.295
			c-0.149-2.835,0.649-5.771,1.381-8.577c0.475-1.821,2.44-2.2,4.419-1.104c4.89,2.711,7.763,6.782,8.645,12.134
			C181.102,113.23,181.186,114.369,181.251,114.936z M179.635,116.537c-0.076-7.053-2.397-11.902-7.899-15.116
			c-1.106-0.648-2.257-1.017-2.575,0.626c-0.503,2.627-1.244,5.33-1.032,7.936c0.322,3.902,1.219,7.787,2.212,11.598
			c0.43,1.636,1.642,3.109,2.638,4.565c0.675,0.984,1.475,0.838,2.3-0.065C178.047,123.044,179.725,119.625,179.635,116.537z"/>
		<path fill-rule="evenodd" fill="#0B0608" d="M83.463,96.894c-1.758-11.063,5.132-19.583,14.701-21.433
			c2.703-0.523,5.564-0.389,8.348-0.345c0.798,0.014,2.029,0.614,2.261,1.227c0.277,0.737-0.015,1.999-0.561,2.635
			c-1.701,1.977-3.471,3.961-5.521,5.585c-4.362,3.455-8.838,6.789-13.435,9.948C87.647,95.615,85.546,96.063,83.463,96.894z
			 M84.825,94.999c1.449-0.702,2.767-1.117,3.807-1.884c6.133-4.52,12.742-8.509,17.744-14.322c0.462-0.537,0.821-1.157,1.279-1.815
			C95.737,74.191,83.756,82.182,84.825,94.999z"/>
		<path fill-rule="evenodd" fill="#71A227" d="M158.149,38.699c-0.209,1.182,0.463,1.415,1.471,1.233
			c1.166-0.212,2.325-0.458,3.64-0.719c0.046,1.776,1.091,1.766,2.515,1.567c1.453-0.202,2.959-0.044,4.541-0.044
			c-0.047,0.669-0.094,1.368-0.155,2.246c1.924,0,3.685,0,5.726,0c-0.442,0.896-0.755,1.556-1.089,2.207
			c-1.02,1.982-1.021,1.979,1.199,2.85c-0.726,0.613-1.452,1.103-2.009,1.731c-0.475,0.539-0.959,1.215-1.028,1.87
			c-0.029,0.273,1.007,0.651,1.685,1.057c-0.708,0.579-1.459,1.208-2.227,1.82c-1.615,1.286-1.615,1.35,0.3,2.585
			c-1.067,0.865-2.098,1.709-3.142,2.54c-0.806,0.642-1.361,1.282-0.108,1.919c-1.007,1.874-4.546,1.377-4.136,4.333
			c-1.276,1.389-4.329,0.42-4.737,3.297c-1.727,1.213-4.854-0.5-6.124,2.402c-3.861,0.252-7.501-0.646-10.893-2.498
			c-0.767-0.419-1.485-0.966-2.119-1.561c-2.927-2.748-2.861-3.934,0.439-6.131c6.112-4.068,11.803-8.746,18.557-11.887
			c1.229-0.572,2.468-1.14,3.745-1.604c0.922-0.336,1.241-0.807,0.84-1.69c-0.419-0.924-1.052-0.641-1.762-0.358
			c-9.154,3.634-18.09,7.667-26.106,13.339c-1.278,0.905-2.155,0.689-3.269-0.244c-2.352-1.973-3.083-4.408-2.072-7.122
			c1.196-3.213,2.732-6.31,4.048-9.294c1.625-0.167,2.188,2.425,3.765,0.833c0.932-0.941,1.66-2.072,2.566-3.226
			c2.499,2.821,3.418-0.636,5.306-1.08c0.394,0.844,0.7,2.163,2.232,1.058c0.896-0.647,1.9-1.161,3.072-1.866
			c-0.023,1.55,0.666,1.759,1.887,1.248c1.031-0.431,2.137-0.695,3.208-1.032C157.99,38.551,158.07,38.625,158.149,38.699z"/>
		<path fill-rule="evenodd" fill="#71A227" d="M157.915,38.477c0.091-0.051,0.179-0.101,0.269-0.151
			c-0.015,0.124-0.025,0.248-0.035,0.373C158.07,38.625,157.99,38.551,157.915,38.477z"/>
		<path fill-rule="evenodd" fill="#71A227" d="M99.329,72.077c1.237-1.727,0.065-1.956-1.18-2.14
			c-1.291-0.189-2.584-0.375-3.876-0.574c-0.23-0.035-0.454-0.129-0.663-0.191c-0.028-2.952-3.175-1.881-4.42-3.37
			c0.763-0.759,0.404-1.347-0.56-1.876c-1.285-0.704-2.523-1.492-3.537-2.1c0.948-2.999-2.517-3.035-3.039-4.834
			c1.623-1.182,1.623-1.214-0.057-2.62c-0.716-0.599-1.421-1.208-2.25-1.913c0.482-0.167,0.87-0.257,1.211-0.43
			c1.28-0.648,1.337-1.459,0.171-2.292c-0.797-0.57-1.61-1.117-2.533-1.754c2.514-0.478,2.551-0.556,1.465-2.658
			c-0.341-0.659-0.677-1.319-1.162-2.262c1.162,0,2.135,0,3.107,0c2.542,0,2.542,0,2.401-2.381c1.724,0,3.443-0.016,5.161,0.006
			c1.616,0.019,1.616,0.037,1.913-1.292c1.693-0.618,3.811,2.036,5.263-0.76c1.599-0.084,3.291,2.295,5.116,0.061
			c1.756-0.294,3.143,3.277,5.373,0.432c0.694,0.509,1.363,0.964,1.994,1.465c1.146,0.911,2.247,1.704,2.787-0.719
			c0.973,1.086,1.792,1.913,2.505,2.815c0.946,1.198,1.847,1.67,2.955-0.127c3.318,3.809,6.174,7.604,5.525,12.797
			c-0.1,0.811-0.533,1.648-1.017,2.341c-1.663,2.375-2.766,2.538-5.147,0.901c-5.834-4.008-11.986-7.462-18.709-9.926
			c-0.389-0.142-0.783-0.396-1.17-0.39c-0.475,0.01-1.258,0.141-1.344,0.396c-0.144,0.418-0.01,1.208,0.318,1.441
			c1.667,1.194,3.461,2.221,5.161,3.377c4.461,3.039,8.884,6.128,13.347,9.165c1.03,0.7,1.124,1.403,0.554,2.464
			c-1.538,2.844-4.11,4.412-7.112,5.382c-2.221,0.718-4.519,1.215-6.799,1.741C100.605,72.359,100.056,72.158,99.329,72.077z"/>
		<path fill-rule="evenodd" fill="#C2085D" d="M131.518,104.556c-0.662-8.538,6.922-13.427,12.817-13.355
			c11.415,0.136,21.088,12.34,17.687,22.367c-2.362,6.956-9.53,10.451-16.803,8.278c-7.349-2.191-11.524-7.157-13.588-14.038
			c-0.066-0.22-0.107-0.451-0.109-0.679C131.509,106.272,131.518,105.413,131.518,104.556z"/>
		<path fill-rule="evenodd" fill="#C2085D" d="M127.494,73.62c4.842,0.249,9.813,1.654,13.344,6.035
			c2.136,2.648,1.809,4.982-1.2,6.602c-7.85,4.228-15.847,4.204-23.843,0.279c-0.469-0.231-0.896-0.565-1.302-0.898
			c-2.831-2.335-2.936-4.685-0.218-7.112C117.808,75.37,121.961,73.605,127.494,73.62z"/>
		<path fill-rule="evenodd" fill="#C1085D" d="M145.819,77.383c6.141-1.023,11.741-0.137,16.522,3.846
			c4.246,3.542,6.691,9.994,5.489,13.929C162.409,93.805,146.992,81.492,145.819,77.383z"/>
		<path fill-rule="evenodd" fill="#C2085D" d="M179.635,116.537c0.09,3.088-1.588,6.507-4.357,9.543
			c-0.825,0.903-1.625,1.05-2.3,0.065c-0.996-1.456-2.208-2.929-2.638-4.565c-0.993-3.812-1.89-7.696-2.212-11.598
			c-0.212-2.605,0.529-5.308,1.032-7.936c0.318-1.643,1.469-1.274,2.575-0.626C177.237,104.635,179.559,109.484,179.635,116.537z"/>
		<path fill-rule="evenodd" fill="#C1085D" d="M84.825,94.999c-1.069-12.817,10.913-20.807,22.83-18.021
			c-0.458,0.658-0.817,1.278-1.279,1.815c-5.002,5.813-11.61,9.802-17.744,14.322C87.591,93.882,86.274,94.296,84.825,94.999z"/>
	</g>
	<path fill="#3B7FB2" d="M213.423,174.008c-3.181,2.179-6.526,4.117-9.935,5.948c-3.414,1.816-6.896,3.545-10.505,5
		c-0.893,0.388-1.798,0.746-2.713,1.082c-0.914,0.34-1.821,0.701-2.743,1.024c-1.857,0.605-3.7,1.275-5.604,1.77
		c-3.769,1.115-7.671,1.886-11.645,2.334l-3.005,0.233l-0.376,0.028l-0.188,0.015l-0.094,0.007l-0.047,0.004
		c0.06,0.002-0.136,0-0.132,0.001l-0.722,0.003l-1.449,0.002c-2.173-0.112-4.21-0.305-6.206-0.698
		c-4.021-0.718-7.856-1.925-11.585-3.274c-3.731-1.35-7.342-2.897-10.879-4.517l-10.489-4.877
		c-3.466-1.607-6.917-3.169-10.376-4.583c-3.458-1.409-6.925-2.688-10.39-3.657c-3.46-0.971-6.913-1.673-10.28-1.891
		c-0.423-0.047-0.836-0.026-1.254-0.045l-0.625-0.016l-0.312-0.204l-0.078-0.197h-0.039c0.278,0,0.051,0.196,0.102,0.197
		l-0.18,0.104l-2.882,0.146l-1.441,0.073l-1.324,0.13l-2.623,0.242c-1.78,0.21-3.621,0.454-5.428,0.717
		c-1.815,0.327-3.631,0.573-5.443,0.977l-2.717,0.558l-2.709,0.635c-1.809,0.403-3.604,0.91-5.402,1.377
		c-3.585,1.01-7.162,2.069-10.699,3.256c-1.767,0.596-3.528,1.207-5.273,1.849c-1.718,0.634-3.531,1.32-5.095,1.976l-8.37,3.512
		l-0.133-9.239l-0.225-15.571l-0.062-4.272l4.061-1.664c1.996-0.818,3.786-1.48,5.683-2.17c1.872-0.677,3.75-1.318,5.635-1.941
		c3.769-1.247,7.587-2.35,11.434-3.385c1.935-0.486,3.86-1.002,5.823-1.409l2.935-0.642l2.963-0.563
		c1.965-0.405,3.985-0.656,5.979-0.981c2.015-0.264,4.04-0.501,6.077-0.694l3.082-0.213c1.022-0.088,2.061-0.119,3.106-0.125
		l3.129-0.046l0.195-0.003l0.394,0.013l0.36,0.016l0.72,0.032l0.72,0.032l0.36,0.016l0.444,0.041
		c1.179,0.118,2.459,0.229,3.497,0.421l1.632,0.267l1.596,0.333c2.132,0.442,4.177,1.027,6.195,1.643
		c4.018,1.262,7.813,2.801,11.489,4.428c3.673,1.631,7.22,3.364,10.698,5.101c6.938,3.489,13.626,7.054,20.277,9.788
		c3.316,1.357,6.624,2.529,9.822,3.227c1.608,0.392,3.159,0.59,4.688,0.751l1.123,0.049l0.561,0.028c0.068,0-0.479,0.01-0.226,0.005
		l0.045-0.002l0.091-0.003l0.18-0.006l0.36-0.012l2.882-0.095c0.233-0.011,0.494-0.011,0.706-0.029l0.595-0.069l1.19-0.132
		c0.806-0.1,1.553-0.125,2.442-0.303l2.583-0.433c0.861-0.139,1.725-0.374,2.588-0.554c1.729-0.345,3.448-0.873,5.175-1.329
		c1.715-0.545,3.44-1.041,5.146-1.668c3.429-1.163,6.813-2.555,10.148-4.053c1.671-0.743,3.323-1.539,4.949-2.362
		c0.82-0.403,1.617-0.833,2.422-1.254c0.773-0.417,1.621-0.883,2.27-1.259l-2.974,4.356l2.983-15.529l9.338,6.373
		c-1.007,0.588-1.849,1.039-2.764,1.532c-0.898,0.467-1.794,0.944-2.696,1.386c-1.802,0.904-3.612,1.769-5.45,2.58
		c-3.669,1.635-7.391,3.152-11.229,4.42c-0.949,0.339-1.912,0.647-2.886,0.934c-0.972,0.291-1.934,0.601-2.912,0.873
		c-1.976,0.504-3.923,1.067-5.944,1.454c-3.986,0.9-8.119,1.433-12.302,1.665l-3.163,0.055l-0.968,0.007l-0.72-0.043l-1.453-0.09
		c-2.426-0.249-4.534-0.588-6.593-1.119c-4.147-1.001-7.983-2.471-11.669-4.074c-3.679-1.623-7.199-3.406-10.648-5.227
		c-3.444-1.826-6.825-3.676-10.181-5.505c-3.355-1.828-6.698-3.612-10.072-5.259c-3.376-1.636-6.775-3.165-10.229-4.424
		c-3.455-1.246-6.972-2.212-10.523-2.699c-0.444-0.08-0.886-0.093-1.331-0.144l-0.667-0.063l-0.334-0.032l-0.083,0.056l-0.042,0.061
		c0.142,0,0.013,0,0.033,0l-0.18-0.07l-2.884-0.12l-1.442-0.06l-1.385,0.018l-2.769,0.055c-1.863,0.088-3.754,0.227-5.637,0.36
		c-1.88,0.205-3.774,0.328-5.653,0.61l-2.828,0.377l-2.82,0.456c-1.885,0.286-3.754,0.676-5.632,1.027
		c-3.738,0.786-7.488,1.587-11.203,2.548c-3.715,0.961-7.418,1.995-11.087,3.167c3.485-1.646,7.066-3.091,10.676-4.465
		c3.611-1.377,7.274-2.627,10.982-3.758c1.861-0.538,3.716-1.113,5.6-1.587l2.821-0.739L74,131.656
		c1.892-0.472,3.821-0.789,5.738-1.184c1.931-0.34,3.863-0.622,5.829-0.874l2.987-0.3l1.493-0.142l1.441-0.071l2.882-0.359
		l0.18-0.227h0.268l0.386,0.223l0.773,0.12c0.514,0.016,1.037,0.051,1.545,0.099c4.109,0.232,8.124,1.037,12,2.096
		c3.88,1.058,7.616,2.445,11.263,3.935c3.647,1.488,7.208,3.102,10.724,4.723c7.019,3.25,13.869,6.643,20.759,9.214
		c3.433,1.285,6.872,2.402,10.245,3.03c1.685,0.36,3.399,0.503,4.801,0.605l1.428,0.019l0.721,0.008
		c0.055,0.001-0.311-0.007-0.137-0.005l0.041-0.003l0.081-0.006l0.163-0.012l0.325-0.022l2.598-0.175
		c3.477-0.37,6.982-0.929,10.462-1.878c1.744-0.401,3.471-0.985,5.201-1.498c0.863-0.277,1.72-0.596,2.579-0.89
		c0.86-0.29,1.716-0.603,2.564-0.947c3.412-1.294,6.775-2.787,10.081-4.386c1.655-0.793,3.29-1.639,4.897-2.511
		c0.812-0.429,1.598-0.882,2.392-1.327c0.765-0.442,1.6-0.931,2.241-1.333l11.559-7.255l-2.221,13.628l-2.544,15.606l-0.459,2.815
		l-2.515,1.543c-1,0.613-1.829,1.088-2.734,1.604c-0.888,0.492-1.773,0.994-2.667,1.46c-1.782,0.953-3.575,1.867-5.398,2.729
		c-3.639,1.736-7.338,3.355-11.161,4.755c-3.813,1.41-7.722,2.648-11.766,3.6c-1.015,0.229-2.008,0.506-3.041,0.692l-3.098,0.564
		c-0.995,0.209-2.172,0.309-3.272,0.446l-1.676,0.189l-0.838,0.091c-0.267,0.024-0.487,0.026-0.733,0.04l-2.88,0.135l-0.99,0.037
		l-0.88-0.022l-1.759-0.059c-2.297-0.19-4.57-0.472-6.705-0.972c-4.322-0.933-8.289-2.347-12.092-3.878
		c-7.588-3.097-14.503-6.757-21.31-10.152c-3.393-1.714-6.75-3.37-10.098-4.874c-3.346-1.5-6.686-2.862-10.002-3.918
		c-1.656-0.511-3.309-0.994-4.942-1.336c-1.626-0.392-3.317-0.603-4.66-0.769l-0.272-0.036l-0.36-0.021l-0.72-0.042L92,154.141
		l-0.36-0.021l-0.09-0.005l-0.045,0.188c0.406,0.016,0.089,0.198,0.169,0.198h-0.165l-2.638-0.184
		c-1.749-0.049-3.552,0.055-5.329,0.121c-1.79,0.147-3.589,0.286-5.388,0.495c-1.803,0.273-3.606,0.439-5.413,0.789
		c-3.614,0.584-7.219,1.395-10.825,2.224c-3.598,0.882-7.193,1.824-10.75,2.914c-1.778,0.543-3.552,1.101-5.31,1.691
		c-1.731,0.584-3.561,1.22-5.136,1.824l4-5.938l-0.225,15.57l-8.502-5.729c2.007-0.767,3.814-1.38,5.723-2.019
		c1.885-0.627,3.776-1.217,5.672-1.789c3.788-1.15,7.625-2.143,11.485-3.05c1.941-0.423,3.869-0.881,5.83-1.238l2.932-0.561
		l2.955-0.483c1.96-0.352,3.967-0.548,5.949-0.819c2.006-0.211,3.99-0.392,6.038-0.521l3.132-0.123l1.555-0.051l1.442,0.022
		l2.884,0.044l0.18,0.003l0.192,0.002l0.051,0.003l0.102,0.007l0.408,0.029l0.815,0.059c0.541,0.049,1.092,0.062,1.622,0.143
		c4.293,0.502,8.373,1.543,12.243,2.877c3.868,1.349,7.536,2.973,11.101,4.688c3.562,1.721,7.015,3.55,10.419,5.393l10.118,5.488
		c3.362,1.772,6.712,3.503,10.1,5.059c3.391,1.54,6.83,2.92,10.33,3.831c1.746,0.498,3.533,0.786,5.187,1.024l1.432,0.13l0.72,0.073
		h0.603l2.759-0.016c3.684-0.154,7.42-0.484,11.117-1.218c1.861-0.296,3.692-0.777,5.542-1.188c0.919-0.228,1.83-0.496,2.747-0.74
		c0.919-0.24,1.832-0.507,2.737-0.802c3.642-1.105,7.245-2.389,10.805-3.806C206.469,177.298,209.988,175.75,213.423,174.008z"/>
</g>
</svg>
