<?xml version="1.0" encoding="utf-8"?>
<!-- Generator: Adobe Illustrator 16.0.0, SVG Export Plug-In . SVG Version: 6.00 Build 0)  -->
<svg version="1.2" baseProfile="tiny" id="Vrstva_1"
	 xmlns="http://www.w3.org/2000/svg" xmlns:xlink="http://www.w3.org/1999/xlink" x="0px" y="0px" width="213.705px"
	 height="164.467px" viewBox="0 0 213.705 164.467" xml:space="preserve">
<rect x="-45.114" y="-63.593" fill="none" stroke="#000000" stroke-miterlimit="10" width="300" height="300"/>
<g>
	<g>
		<path fill="#2B2B2B" d="M107.264,125.204c-1.901-0.042-0.831,0.02-2.72-0.002c-1.891-0.021-3.801-0.031-5.783-0.031
			c-1.887,0-3.705,0.011-5.499,0.031c-1.797,0.021-3.571,0.056-5.375,0.098c-1.805,0.043-3.64,0.1-5.553,0.165
			c-1.916,0.065-3.909,0.138-6.031,0.225c-0.283-0.129-0.52-0.411-0.696-0.772c-0.177-0.364-0.295-0.808-0.343-1.261
			c-0.046-0.458-0.023-0.924,0.083-1.33s0.295-0.754,0.578-0.97l0.99-0.13l0.991-0.131l0.992-0.129l0.99-0.13
			c2.736-0.347,4.813-0.736,6.388-1.41c1.575-0.676,2.648-1.634,3.379-3.118c0.73-1.484,1.119-3.493,1.326-6.273
			c0.206-2.775,0.229-6.316,0.229-10.868v-5.46v-5.461v-5.46v-5.459c0-0.91-0.023-1.604-0.192-2.131
			c-0.167-0.527-0.479-0.892-1.058-1.14c-0.578-0.25-1.42-0.386-2.651-0.457c-1.229-0.075-2.847-0.085-4.969-0.085
			c-1.888,0-3.493,0.107-4.881,0.33c-1.389,0.221-2.562,0.56-3.588,1.013c-1.026,0.455-1.904,1.031-2.704,1.73
			c-0.798,0.698-1.519,1.52-2.227,2.475c-1.462,1.948-3.042,4.159-4.668,6.478c-1.625,2.316-3.294,4.742-4.933,7.126
			c-1.639,2.385-3.251,4.726-4.757,6.869c-1.507,2.146-2.91,4.098-4.138,5.701c-3.35,4.376-6.463,7.928-9.501,10.798
			c-3.038,2.868-5.998,5.054-9.04,6.687c-3.043,1.636-6.168,2.725-9.535,3.406c-3.369,0.68-6.977,0.949-10.989,0.949
			c-0.897,0-1.757-0.021-2.574-0.062c-0.814-0.042-1.579-0.102-2.289-0.178c-0.709-0.072-1.357-0.167-1.936-0.27
			c-0.577-0.109-1.084-0.227-1.508-0.357c-0.236-0.174-0.402-0.388-0.5-0.623c-0.102-0.233-0.135-0.482-0.111-0.72
			c0.021-0.239,0.104-0.467,0.239-0.657c0.139-0.188,0.326-0.341,0.563-0.426c1.275-0.087,2.525-0.271,3.736-0.538
			c1.207-0.269,2.374-0.622,3.482-1.044c1.109-0.421,2.157-0.915,3.13-1.464c0.974-0.551,1.871-1.158,2.673-1.811
			c3.209-2.468,6.239-5.188,9.218-8.227c2.978-3.039,5.903-6.396,8.9-10.146c2.995-3.751,6.062-7.888,9.325-12.486
			c3.261-4.599,6.716-9.66,10.491-15.25c0.237-0.346,0.472-0.716,0.678-1.089c0.208-0.375,0.384-0.754,0.502-1.124
			c0.117-0.37,0.177-0.725,0.148-1.055c-0.031-0.33-0.148-0.634-0.384-0.895c-2.359-0.866-5.013-2.079-7.667-3.667
			c-2.654-1.591-5.308-3.557-7.667-5.931c-2.359-2.372-4.422-5.151-5.897-8.368c-1.474-3.214-2.359-6.866-2.359-10.982
			c0-3.032,0.413-5.795,1.174-8.301c0.76-2.504,1.869-4.751,3.261-6.757s3.065-3.767,4.959-5.296
			c1.894-1.527,4.004-2.829,6.27-3.912c2.17-1.083,4.496-1.95,6.943-2.642c2.446-0.69,5.018-1.205,7.684-1.582
			c2.667-0.379,5.426-0.624,8.251-0.774c2.826-0.148,5.715-0.203,8.642-0.203c4.624,0,8.905,0.035,12.891,0.096
			c3.987,0.062,7.68,0.152,11.125,0.27c3.444,0.12,6.639,0.267,9.637,0.438c2.996,0.172,15.227,0.364,17.872,0.582
			c0.373,0.172,0.656,0.477,0.852,0.848c0.188,0.37,0.29,0.808,0.305,1.254c0.011,0.446-0.065,0.894-0.229,1.287
			c-0.163,0.395-0.413,0.727-0.739,0.944l-10.946,0.172l-1.511,0.176l-1.512,0.174l-1.509,0.172
			c-1.936,0.217-3.418,0.562-4.562,1.219c-1.144,0.654-1.938,1.62-2.495,3.073c-0.553,1.45-0.866,3.39-1.04,5.996
			c-0.172,2.604-0.207,5.876-0.207,9.993v15.558v15.558v15.558v15.556c0,4.552,0.022,8.105,0.229,10.894
			c0.207,2.791,0.214,12.856,0.347,14.721 M91.212,51.583v-10.14V31.302v-10.14c0-1.214-0.036-2.167-0.272-2.914
			c-0.235-0.749-0.671-1.291-1.473-1.68c-0.804-0.39-1.971-0.627-3.669-0.767c-1.699-0.142-3.927-0.187-6.853-0.187
			c-5.237,0-9.744,0.812-13.557,2.245c-3.812,1.433-6.933,3.488-9.398,5.969c-2.465,2.479-4.276,5.391-5.469,8.534
			c-1.195,3.142-1.773,6.523-1.773,9.948c0,2.946,0.271,5.536,0.758,7.82c0.487,2.283,1.188,4.262,2.05,5.983
			c0.86,1.72,1.882,3.191,3.004,4.454c1.124,1.265,2.35,2.328,3.625,3.236c1.369,0.953,2.843,1.712,4.392,2.314
			c1.548,0.603,3.17,1.047,4.833,1.372s3.367,0.531,5.081,0.654c1.712,0.125,3.435,0.169,5.133,0.169
			c2.406,0,4.388-0.022,6.016-0.062c1.628-0.042,2.902-0.101,3.892-0.177s1.699-0.167,2.195-0.274
			c0.494-0.107,0.776-0.227,0.919-0.355c0.141-0.172,0.247-0.42,0.327-0.745c0.08-0.328,0.132-0.729,0.167-1.205
			s0.053-1.027,0.062-1.656c0.009-0.629,0.009-1.332,0.009-2.113V51.583z"/>
		<path fill="none" stroke="#3A3A3A" stroke-miterlimit="10" d="M107.264,125.204c-1.901-0.042-0.831,0.02-2.72-0.002
			c-1.891-0.021-3.801-0.031-5.783-0.031c-1.887,0-3.705,0.011-5.499,0.031c-1.797,0.021-3.571,0.056-5.375,0.098
			c-1.805,0.043-3.64,0.1-5.553,0.165c-1.916,0.065-3.909,0.138-6.031,0.225c-0.283-0.129-0.52-0.411-0.696-0.772
			c-0.177-0.364-0.295-0.808-0.343-1.261c-0.046-0.458-0.023-0.924,0.083-1.33s0.295-0.754,0.578-0.97l0.99-0.13l0.991-0.131
			l0.992-0.129l0.99-0.13c2.736-0.347,4.813-0.736,6.388-1.41c1.575-0.676,2.648-1.634,3.379-3.118
			c0.73-1.484,1.119-3.493,1.326-6.273c0.206-2.775,0.229-6.316,0.229-10.868v-5.46v-5.461v-5.46v-5.459
			c0-0.91-0.023-1.604-0.192-2.131c-0.167-0.527-0.479-0.892-1.058-1.14c-0.578-0.25-1.42-0.386-2.651-0.457
			c-1.229-0.075-2.847-0.085-4.969-0.085c-1.888,0-3.493,0.107-4.881,0.33c-1.389,0.221-2.562,0.56-3.588,1.013
			c-1.026,0.455-1.904,1.031-2.704,1.73c-0.798,0.698-1.519,1.52-2.227,2.475c-1.462,1.948-3.042,4.159-4.668,6.478
			c-1.625,2.316-3.294,4.742-4.933,7.126c-1.639,2.385-3.251,4.726-4.757,6.869c-1.507,2.146-2.91,4.098-4.138,5.701
			c-3.35,4.376-6.463,7.928-9.501,10.798c-3.038,2.868-5.998,5.054-9.04,6.687c-3.043,1.636-6.168,2.725-9.535,3.406
			c-3.369,0.68-6.977,0.949-10.989,0.949c-0.897,0-1.757-0.021-2.574-0.062c-0.814-0.042-1.579-0.102-2.289-0.178
			c-0.709-0.072-1.357-0.167-1.936-0.27c-0.577-0.109-1.084-0.227-1.508-0.357c-0.236-0.174-0.402-0.388-0.5-0.623
			c-0.102-0.233-0.135-0.482-0.111-0.72c0.021-0.239,0.104-0.467,0.239-0.657c0.139-0.188,0.326-0.341,0.563-0.426
			c1.275-0.087,2.525-0.271,3.736-0.538c1.207-0.269,2.374-0.622,3.482-1.044c1.109-0.421,2.157-0.915,3.13-1.464
			c0.974-0.551,1.871-1.158,2.673-1.811c3.209-2.468,6.239-5.188,9.218-8.227c2.978-3.039,5.903-6.396,8.9-10.146
			c2.995-3.751,6.062-7.888,9.325-12.486c3.261-4.599,6.716-9.66,10.491-15.25c0.237-0.346,0.472-0.716,0.678-1.089
			c0.208-0.375,0.384-0.754,0.502-1.124c0.117-0.37,0.177-0.725,0.148-1.055c-0.031-0.33-0.148-0.634-0.384-0.895
			c-2.359-0.866-5.013-2.079-7.667-3.667c-2.654-1.591-5.308-3.557-7.667-5.931c-2.359-2.372-4.422-5.151-5.897-8.368
			c-1.474-3.214-2.359-6.866-2.359-10.982c0-3.032,0.413-5.795,1.174-8.301c0.76-2.504,1.869-4.751,3.261-6.757
			s3.065-3.767,4.959-5.296c1.894-1.527,4.004-2.829,6.27-3.912c2.17-1.083,4.496-1.95,6.943-2.642
			c2.446-0.69,5.018-1.205,7.684-1.582c2.667-0.379,5.426-0.624,8.251-0.774c2.826-0.148,5.715-0.203,8.642-0.203
			c4.624,0,8.905,0.035,12.891,0.096c3.987,0.062,7.68,0.152,11.125,0.27c3.444,0.12,6.639,0.267,9.637,0.438
			c2.996,0.172,15.227,0.364,17.872,0.582c0.373,0.172,0.656,0.477,0.852,0.848c0.188,0.37,0.29,0.808,0.305,1.254
			c0.011,0.446-0.065,0.894-0.229,1.287c-0.163,0.395-0.413,0.727-0.739,0.944l-10.946,0.172l-1.511,0.176l-1.512,0.174
			l-1.509,0.172c-1.936,0.217-3.418,0.562-4.562,1.219c-1.144,0.654-1.938,1.62-2.495,3.073c-0.553,1.45-0.866,3.39-1.04,5.996
			c-0.172,2.604-0.207,5.876-0.207,9.993v15.558v15.558v15.558v15.556c0,4.552,0.022,8.105,0.229,10.894
			c0.207,2.791,0.214,12.856,0.347,14.721 M91.212,51.583v-10.14V31.302v-10.14c0-1.214-0.036-2.167-0.272-2.914
			c-0.235-0.749-0.671-1.291-1.473-1.68c-0.804-0.39-1.971-0.627-3.669-0.767c-1.699-0.142-3.927-0.187-6.853-0.187
			c-5.237,0-9.744,0.812-13.557,2.245c-3.812,1.433-6.933,3.488-9.398,5.969c-2.465,2.479-4.276,5.391-5.469,8.534
			c-1.195,3.142-1.773,6.523-1.773,9.948c0,2.946,0.271,5.536,0.758,7.82c0.487,2.283,1.188,4.262,2.05,5.983
			c0.86,1.72,1.882,3.191,3.004,4.454c1.124,1.265,2.35,2.328,3.625,3.236c1.369,0.953,2.843,1.712,4.392,2.314
			c1.548,0.603,3.17,1.047,4.833,1.372s3.367,0.531,5.081,0.654c1.712,0.125,3.435,0.169,5.133,0.169
			c2.406,0,4.388-0.022,6.016-0.062c1.628-0.042,2.902-0.101,3.892-0.177s1.699-0.167,2.195-0.274
			c0.494-0.107,0.776-0.227,0.919-0.355c0.141-0.172,0.247-0.42,0.327-0.745c0.08-0.328,0.132-0.729,0.167-1.205
			s0.053-1.027,0.062-1.656c0.009-0.629,0.009-1.332,0.009-2.113V51.583z"/>
	</g>
	<g>
		<path fill="#2B2B2B" d="M126.398,16.026c-1.771,0-4.604,0.511-5.177,2.037c-0.091,1.999-0.506,4.249-0.616,7.562
			c-0.108,3.316-0.222,7.12-0.334,11.07c-0.104,3.952-0.206,8.054-0.301,11.972c-0.09,3.912-0.166,7.643-0.221,10.845
			c-0.023,2.502-0.085,5.586-0.159,8.995c-0.072,3.417-0.16,7.159-0.232,10.982c-0.068,3.825-0.13,7.735-0.155,11.474
			c-0.023,3.742-0.011,7.317,0.056,10.472c4.344-3.631,53.973-71.074,55.261-72.958c1.287-1.879,2.043-2.655,2.537-3.97
			c0.5-1.312,0.982-2.709,0.394-3.792c-0.589-0.964-3.853-1.622-4.996-1.897c-1.146-0.283-2.573-0.549-4.361-0.828l-0.697-0.108
			l-0.696-0.109l-0.707-0.109l-0.71-0.11c-0.317-0.272-0.531-0.638-0.645-1.038c-0.111-0.406-0.139-0.85-0.067-1.281
			c0.063-0.435,0.208-0.846,0.42-1.2c0.216-0.352,0.495-0.634,0.832-0.801c1.982,0.152,3.874,0.285,5.735,0.415
			c1.858,0.121,3.684,0.233,5.521,0.335c1.838,0.105,3.686,0.196,5.591,0.279c1.911,0.082,3.887,0.156,5.959,0.221
			c2.024,0.065,3.927,0.118,5.714,0.152c1.797,0.04,3.484,0.062,5.088,0.065c1.609,0.011,3.128,0.002,4.592-0.015
			c1.462-0.016,2.872-0.049,4.24-0.09c0.375,0.232,0.653,0.547,0.848,0.922c0.195,0.375,0.301,0.79,0.324,1.216
			c0.019,0.42-0.049,0.853-0.212,1.235c-0.159,0.379-0.404,0.718-0.746,0.968l-0.849,0.06l-0.856,0.06l-0.854,0.06l-5.4,0.273
			c-2.031,0.154-3.484,2.332-4.783,3.37c-4.862,3.887-78.027,100.94-79.311,102.408c-0.253-0.01-3.199-0.035-3.425-0.102
			c-0.226-0.071-0.441-0.147-0.663-0.237c-0.166-0.069,0.099-80.961,0.044-85.286c-0.055-4.326-0.154-8.377-0.29-12.121
			c-0.134-3.746-0.279-8.306-0.5-11.394H126.398z"/>
		<path fill="none" stroke="#3A3A3A" stroke-miterlimit="10" d="M126.398,16.026c-1.771,0-4.604,0.511-5.177,2.037
			c-0.091,1.999-0.506,4.249-0.616,7.562c-0.108,3.316-0.222,7.12-0.334,11.07c-0.104,3.952-0.206,8.054-0.301,11.972
			c-0.09,3.912-0.166,7.643-0.221,10.845c-0.023,2.502-0.085,5.586-0.159,8.995c-0.072,3.417-0.16,7.159-0.232,10.982
			c-0.068,3.825-0.13,7.735-0.155,11.474c-0.023,3.742-0.011,7.317,0.056,10.472c4.344-3.631,53.973-71.074,55.261-72.958
			c1.287-1.879,2.043-2.655,2.537-3.97c0.5-1.312,0.982-2.709,0.394-3.792c-0.589-0.964-3.853-1.622-4.996-1.897
			c-1.146-0.283-2.573-0.549-4.361-0.828l-0.697-0.108l-0.696-0.109l-0.707-0.109l-0.71-0.11c-0.317-0.272-0.531-0.638-0.645-1.038
			c-0.111-0.406-0.139-0.85-0.067-1.281c0.063-0.435,0.208-0.846,0.42-1.2c0.216-0.352,0.495-0.634,0.832-0.801
			c1.982,0.152,3.874,0.285,5.735,0.415c1.858,0.121,3.684,0.233,5.521,0.335c1.838,0.105,3.686,0.196,5.591,0.279
			c1.911,0.082,3.887,0.156,5.959,0.221c2.024,0.065,3.927,0.118,5.714,0.152c1.797,0.04,3.484,0.062,5.088,0.065
			c1.609,0.011,3.128,0.002,4.592-0.015c1.462-0.016,2.872-0.049,4.24-0.09c0.375,0.232,0.653,0.547,0.848,0.922
			c0.195,0.375,0.301,0.79,0.324,1.216c0.019,0.42-0.049,0.853-0.212,1.235c-0.159,0.379-0.404,0.718-0.746,0.968l-0.849,0.06
			l-0.856,0.06l-0.854,0.06l-5.4,0.273c-2.031,0.154-3.484,2.332-4.783,3.37c-4.862,3.887-78.027,100.94-79.311,102.408
			c-0.253-0.01-3.199-0.035-3.425-0.102c-0.226-0.071-0.441-0.147-0.663-0.237c-0.166-0.069,0.099-80.961,0.044-85.286
			c-0.055-4.326-0.154-8.377-0.29-12.121c-0.134-3.746-0.279-8.306-0.5-11.394H126.398z"/>
	</g>
	<rect x="20.039" y="132.486" fill="none" width="182.444" height="21.31"/>
	
		<text transform="matrix(1.0887 0 0 1 20.0381 146.9482)" fill="#2B2B2B" stroke="#3A3A3A" stroke-miterlimit="10" font-family="'AGaramondPro-Regular'" font-size="20.2245">R</text>
	
		<text transform="matrix(1.0887 0 0 1 33.4478 146.9482)" fill="#2B2B2B" stroke="#3A3A3A" stroke-miterlimit="10" font-family="'AGaramondPro-Regular'" font-size="20.2245">O</text>
	
		<text transform="matrix(1.0887 0 0 1 50.9531 146.9482)" fill="#2B2B2B" stroke="#3A3A3A" stroke-miterlimit="10" font-family="'AGaramondPro-Regular'" font-size="20.2245">M</text>
	
		<text transform="matrix(1.0887 0 0 1 71.0342 146.9482)" fill="#2B2B2B" stroke="#3A3A3A" stroke-miterlimit="10" font-family="'AGaramondPro-Regular'" font-size="20.2245">A</text>
	
		<text transform="matrix(1.0887 0 0 1 84.752 146.9482)" fill="#2B2B2B" stroke="#3A3A3A" stroke-miterlimit="10" font-family="'AGaramondPro-Regular'" font-size="20.2245">N</text>
	
		<text transform="matrix(1.0887 0 0 1 101.9927 146.9482)" fill="#2B2B2B" stroke="#3A3A3A" stroke-miterlimit="10" font-family="'AGaramondPro-Regular'" font-size="20.2245"> </text>
	
		<text transform="matrix(1.0887 0 0 1 107.4971 146.9482)" fill="#2B2B2B" stroke="#3A3A3A" stroke-miterlimit="10" font-family="'AGaramondPro-Regular'" font-size="20.2245"> </text>
	
		<text transform="matrix(1.0887 0 0 1 113.002 146.9482)" fill="#2B2B2B" stroke="#3A3A3A" stroke-miterlimit="10" font-family="'AGaramondPro-Regular'" font-size="20.2245"> </text>
	
		<text transform="matrix(1.0887 0 0 1 118.1768 146.9482)" fill="#2B2B2B" stroke="#3A3A3A" stroke-miterlimit="10" font-family="'AGaramondPro-Regular'" font-size="20.2245">V</text>
	
		<text transform="matrix(1.0887 0 0 1 131.4102 146.9482)" fill="#2B2B2B" stroke="#3A3A3A" stroke-miterlimit="10" font-family="'AGaramondPro-Regular'" font-size="20.2245">A</text>
	
		<text transform="matrix(1.0887 0 0 1 145.1279 146.9482)" fill="#2B2B2B" stroke="#3A3A3A" stroke-miterlimit="10" font-family="'AGaramondPro-Regular'" font-size="20.2245">R</text>
	
		<text transform="matrix(1.0887 0 0 1 158.5381 146.9482)" fill="#2B2B2B" stroke="#3A3A3A" stroke-miterlimit="10" font-family="'AGaramondPro-Regular'" font-size="20.2245">G</text>
	
		<text transform="matrix(1.0887 0 0 1 174.9863 146.9482)" fill="#2B2B2B" stroke="#3A3A3A" stroke-miterlimit="10" font-family="'AGaramondPro-Regular'" font-size="20.2245">A</text>
	<line fill="#2B2B2B" stroke="#3A3A3A" stroke-miterlimit="10" x1="14.386" y1="156.407" x2="201.386" y2="156.407"/>
</g>
</svg>
