<?xml version="1.0" encoding="utf-8"?>
<!-- Generator: Adobe Illustrator 16.0.0, SVG Export Plug-In . SVG Version: 6.00 Build 0)  -->
<svg version="1.2" baseProfile="tiny" id="Vrstva_1"
	 xmlns="http://www.w3.org/2000/svg" xmlns:xlink="http://www.w3.org/1999/xlink" x="0px" y="0px" width="213.705px"
	 height="164.467px" viewBox="0 0 213.705 164.467" xml:space="preserve">
<rect x="-45.114" y="-63.593" fill="none" stroke="#000000" stroke-miterlimit="10" width="300" height="300"/>
<g>
	<g>
		<path fill="#F2F2F2" d="M126.398,16.026c-1.771,0-4.604,0.511-5.177,2.037c-0.091,1.999-0.506,4.249-0.616,7.562
			c-0.108,3.316-0.222,7.12-0.334,11.07c-0.104,3.952-0.206,8.054-0.301,11.972c-0.09,3.912-0.166,7.643-0.221,10.845
			c-0.023,2.502-0.085,5.586-0.159,8.995c-0.072,3.417-0.16,7.159-0.232,10.982c-0.068,3.825-0.13,7.735-0.155,11.474
			c-0.023,3.742-0.011,7.317,0.056,10.472c4.344-3.631,53.973-71.074,55.261-72.958c1.287-1.879,2.043-2.655,2.537-3.97
			c0.5-1.312,0.982-2.709,0.394-3.792c-0.589-0.964-3.853-1.622-4.996-1.897c-1.146-0.283-2.573-0.549-4.361-0.828l-0.697-0.108
			l-0.696-0.109l-0.707-0.109l-0.71-0.11c-0.317-0.272-0.531-0.638-0.645-1.038c-0.111-0.406-0.139-0.85-0.067-1.281
			c0.063-0.435,0.208-0.846,0.42-1.2c0.216-0.352,0.495-0.634,0.832-0.801c1.982,0.152,3.874,0.285,5.735,0.415
			c1.858,0.121,3.684,0.233,5.521,0.335c1.838,0.105,3.686,0.196,5.591,0.279c1.911,0.082,3.887,0.156,5.959,0.221
			c2.024,0.065,3.927,0.118,5.714,0.152c1.797,0.04,3.484,0.062,5.088,0.065c1.609,0.011,3.128,0.002,4.592-0.015
			c1.462-0.016,2.872-0.049,4.24-0.09c0.375,0.232,0.653,0.547,0.848,0.922c0.195,0.375,0.301,0.79,0.324,1.216
			c0.019,0.42-0.049,0.853-0.212,1.235c-0.159,0.379-0.404,0.718-0.746,0.968l-0.849,0.06l-0.856,0.06l-0.854,0.06l-5.4,0.273
			c-2.031,0.154-3.484,2.332-4.783,3.37c-4.862,3.887-78.027,100.94-79.311,102.408c-0.253-0.01-3.199-0.035-3.425-0.102
			c-0.226-0.071-0.441-0.147-0.663-0.237c-0.166-0.069,0.099-80.961,0.044-85.286c-0.055-4.326-0.154-8.377-0.29-12.121
			c-0.134-3.746-0.279-8.306-0.5-11.394H126.398z"/>
		<path fill="none" stroke="#F2F2F2" stroke-miterlimit="10" d="M126.398,16.026c-1.771,0-4.604,0.511-5.177,2.037
			c-0.091,1.999-0.506,4.249-0.616,7.562c-0.108,3.316-0.222,7.12-0.334,11.07c-0.104,3.952-0.206,8.054-0.301,11.972
			c-0.09,3.912-0.166,7.643-0.221,10.845c-0.023,2.502-0.085,5.586-0.159,8.995c-0.072,3.417-0.16,7.159-0.232,10.982
			c-0.068,3.825-0.13,7.735-0.155,11.474c-0.023,3.742-0.011,7.317,0.056,10.472c4.344-3.631,53.973-71.074,55.261-72.958
			c1.287-1.879,2.043-2.655,2.537-3.97c0.5-1.312,0.982-2.709,0.394-3.792c-0.589-0.964-3.853-1.622-4.996-1.897
			c-1.146-0.283-2.573-0.549-4.361-0.828l-0.697-0.108l-0.696-0.109l-0.707-0.109l-0.71-0.11c-0.317-0.272-0.531-0.638-0.645-1.038
			c-0.111-0.406-0.139-0.85-0.067-1.281c0.063-0.435,0.208-0.846,0.42-1.2c0.216-0.352,0.495-0.634,0.832-0.801
			c1.982,0.152,3.874,0.285,5.735,0.415c1.858,0.121,3.684,0.233,5.521,0.335c1.838,0.105,3.686,0.196,5.591,0.279
			c1.911,0.082,3.887,0.156,5.959,0.221c2.024,0.065,3.927,0.118,5.714,0.152c1.797,0.04,3.484,0.062,5.088,0.065
			c1.609,0.011,3.128,0.002,4.592-0.015c1.462-0.016,2.872-0.049,4.24-0.09c0.375,0.232,0.653,0.547,0.848,0.922
			c0.195,0.375,0.301,0.79,0.324,1.216c0.019,0.42-0.049,0.853-0.212,1.235c-0.159,0.379-0.404,0.718-0.746,0.968l-0.849,0.06
			l-0.856,0.06l-0.854,0.06l-5.4,0.273c-2.031,0.154-3.484,2.332-4.783,3.37c-4.862,3.887-78.027,100.94-79.311,102.408
			c-0.253-0.01-3.199-0.035-3.425-0.102c-0.226-0.071-0.441-0.147-0.663-0.237c-0.166-0.069,0.099-80.961,0.044-85.286
			c-0.055-4.326-0.154-8.377-0.29-12.121c-0.134-3.746-0.279-8.306-0.5-11.394H126.398z"/>
	</g>
	<rect x="20.039" y="132.486" fill="none" width="182.444" height="21.31"/>
	
		<text transform="matrix(1.0887 0 0 1 20.0381 146.9482)" fill="#F2F2F2" stroke="#F2F2F2" stroke-miterlimit="10" font-family="'AGaramondPro-Regular'" font-size="20.2245">R</text>
	
		<text transform="matrix(1.0887 0 0 1 33.4478 146.9482)" fill="#F2F2F2" stroke="#F2F2F2" stroke-miterlimit="10" font-family="'AGaramondPro-Regular'" font-size="20.2245">O</text>
	
		<text transform="matrix(1.0887 0 0 1 50.9531 146.9482)" fill="#F2F2F2" stroke="#F2F2F2" stroke-miterlimit="10" font-family="'AGaramondPro-Regular'" font-size="20.2245">M</text>
	
		<text transform="matrix(1.0887 0 0 1 71.0342 146.9482)" fill="#F2F2F2" stroke="#F2F2F2" stroke-miterlimit="10" font-family="'AGaramondPro-Regular'" font-size="20.2245">A</text>
	
		<text transform="matrix(1.0887 0 0 1 84.752 146.9482)" fill="#F2F2F2" stroke="#F2F2F2" stroke-miterlimit="10" font-family="'AGaramondPro-Regular'" font-size="20.2245">N</text>
	
		<text transform="matrix(1.0887 0 0 1 101.9927 146.9482)" fill="#F2F2F2" stroke="#F2F2F2" stroke-miterlimit="10" font-family="'AGaramondPro-Regular'" font-size="20.2245"> </text>
	
		<text transform="matrix(1.0887 0 0 1 107.4971 146.9482)" fill="#F2F2F2" stroke="#F2F2F2" stroke-miterlimit="10" font-family="'AGaramondPro-Regular'" font-size="20.2245"> </text>
	
		<text transform="matrix(1.0887 0 0 1 113.002 146.9482)" fill="#F2F2F2" stroke="#F2F2F2" stroke-miterlimit="10" font-family="'AGaramondPro-Regular'" font-size="20.2245"> </text>
	
		<text transform="matrix(1.0887 0 0 1 118.1768 146.9482)" fill="#F2F2F2" stroke="#F2F2F2" stroke-miterlimit="10" font-family="'AGaramondPro-Regular'" font-size="20.2245">V</text>
	
		<text transform="matrix(1.0887 0 0 1 131.4102 146.9482)" fill="#F2F2F2" stroke="#F2F2F2" stroke-miterlimit="10" font-family="'AGaramondPro-Regular'" font-size="20.2245">A</text>
	
		<text transform="matrix(1.0887 0 0 1 145.1279 146.9482)" fill="#F2F2F2" stroke="#F2F2F2" stroke-miterlimit="10" font-family="'AGaramondPro-Regular'" font-size="20.2245">R</text>
	
		<text transform="matrix(1.0887 0 0 1 158.5381 146.9482)" fill="#F2F2F2" stroke="#F2F2F2" stroke-miterlimit="10" font-family="'AGaramondPro-Regular'" font-size="20.2245">G</text>
	
		<text transform="matrix(1.0887 0 0 1 174.9863 146.9482)" fill="#F2F2F2" stroke="#F2F2F2" stroke-miterlimit="10" font-family="'AGaramondPro-Regular'" font-size="20.2245">A</text>
	<line fill="#F2F2F2" stroke="#F2F2F2" stroke-miterlimit="10" x1="14.386" y1="156.407" x2="201.386" y2="156.407"/>
</g>
<path fill="#F2F2F2" d="M131.133,12.477c-0.195-0.372-0.479-0.676-0.852-0.848c-2.646-0.217-14.876-0.409-17.872-0.582
	c-2.998-0.172-6.193-0.319-9.637-0.438c-3.445-0.118-7.138-0.208-11.125-0.27c-3.985-0.062-8.267-0.096-12.891-0.096
	c-2.926,0-5.815,0.055-8.642,0.203c-2.825,0.15-5.584,0.395-8.251,0.774c-2.666,0.377-5.237,0.892-7.684,1.582
	c-2.447,0.692-4.773,1.559-6.943,2.642c-2.266,1.083-4.376,2.385-6.27,3.912c-1.895,1.529-3.568,3.291-4.959,5.296
	s-2.5,4.253-3.261,6.757c-0.761,2.506-1.174,5.269-1.174,8.301c0,4.117,0.885,7.768,2.359,10.982
	c1.475,3.216,3.538,5.996,5.897,8.368c2.358,2.374,5.013,4.34,7.667,5.931c2.655,1.589,5.308,2.801,7.667,3.667
	c0.236,0.261,0.354,0.565,0.384,0.895c0.029,0.33-0.031,0.685-0.148,1.055c-0.118,0.37-0.294,0.748-0.502,1.124
	c-0.206,0.373-0.441,0.743-0.678,1.089c-3.775,5.59-7.23,10.651-10.491,15.25c-3.263,4.599-6.33,8.735-9.325,12.486
	c-2.997,3.749-5.922,7.106-8.9,10.146c-2.979,3.039-6.009,5.759-9.218,8.227c-0.802,0.652-1.699,1.26-2.673,1.811
	c-0.973,0.549-2.021,1.043-3.13,1.464c-1.109,0.422-2.276,0.775-3.482,1.044c-1.21,0.268-2.461,0.451-3.736,0.538
	c-0.236,0.085-0.424,0.237-0.563,0.426c-0.135,0.19-0.218,0.418-0.239,0.657c-0.024,0.237,0.009,0.486,0.111,0.72
	c0.098,0.235,0.264,0.449,0.5,0.623c0.424,0.131,0.931,0.248,1.508,0.357c0.578,0.103,1.226,0.197,1.936,0.27
	c0.709,0.076,1.475,0.136,2.289,0.178c0.817,0.04,1.677,0.062,2.574,0.062c4.013,0,7.621-0.27,10.989-0.949
	c3.367-0.682,6.491-1.771,9.535-3.406c3.042-1.633,6.002-3.818,9.04-6.687c3.039-2.87,6.152-6.422,9.501-10.798
	c1.228-1.604,2.631-3.556,4.138-5.701c1.506-2.144,3.118-4.484,4.757-6.869c1.639-2.385,3.308-4.811,4.933-7.126
	c1.625-2.319,3.206-4.53,4.668-6.478c0.708-0.955,1.429-1.777,2.227-2.475c0.799-0.699,1.677-1.276,2.704-1.73
	c1.026-0.453,2.199-0.792,3.588-1.013c1.389-0.223,2.994-0.33,4.881-0.33c2.122,0,3.74,0.011,4.969,0.085
	c1.23,0.07,2.073,0.207,2.651,0.457c0.579,0.248,0.978,0.612,1.145,1.14c0.169,0.527,0.279,1.221,0.279,2.131v5.459v5.46v5.461v5.46
	c0,4.552-0.11,8.093-0.316,10.868c-0.208,2.78-0.64,4.789-1.37,6.273c-0.731,1.484-1.827,2.442-3.401,3.118
	c-1.576,0.674-3.664,1.063-6.399,1.41l-0.996,0.13l-0.995,0.129l-0.993,0.131l-0.991,0.13c-0.283,0.216-0.472,0.563-0.578,0.97
	s-0.129,0.872-0.083,1.33c0.047,0.453,0.166,0.896,0.343,1.261c0.176,0.361,0.413,0.644,0.696,0.772
	c2.123-0.087,4.116-0.159,6.031-0.225c1.913-0.065,3.748-0.122,5.553-0.165c1.805-0.042,3.579-0.076,5.375-0.098
	c1.794-0.021,3.611-0.031,5.499-0.031c1.981,0,3.953,0.011,5.844,0.031c1.889,0.021,0.781-0.04,2.781,0.002v-0.423
	c0-1.864-0.352-11.93-0.559-14.721c-0.207-2.788-0.441-6.342-0.441-10.894V83.611V68.053V52.495V36.937
	c0-4.117,0.187-7.39,0.358-9.993c0.174-2.606,0.563-4.546,1.116-5.996c0.557-1.453,1.389-2.419,2.532-3.073
	c1.144-0.658,2.646-1.002,4.581-1.219l1.518-0.172l1.517-0.174l1.514-0.176l10.947-0.172c0.326-0.217,0.576-0.549,0.739-0.944
	c0.163-0.393,0.24-0.841,0.229-1.287C131.423,13.285,131.321,12.846,131.133,12.477z M61.914,78.305
	c-0.528,0.593-1.139,1.321-1.901,2.123c-0.699,0.826-1.522,1.733-2.357,2.733c-0.812,1.01-1.692,2.09-2.501,3.272
	c-0.901,1.145-1.64,2.43-2.495,3.717c-0.836,1.295-1.527,2.698-2.375,4.067c-0.73,1.413-1.472,2.851-2.215,4.286
	c-0.858,1.561-1.613,2.949-2.468,4.396c-0.487,0.73-0.989,1.451-1.496,2.159c-0.525,0.7-0.945,1.426-1.553,2.069
	c-1.146,1.311-2.191,2.589-3.466,3.705c-0.626,0.558-1.173,1.126-1.812,1.624c-0.646,0.493-1.271,0.969-1.872,1.426
	c-1.18,0.915-2.441,1.645-3.492,2.316c-1.091,0.644-2.08,1.177-2.891,1.612c-1.638,0.855-2.625,1.313-2.625,1.313
	s0.594-0.693,1.725-1.85c0.561-0.577,1.208-1.291,2.011-2.069c0.367-0.402,0.757-0.829,1.169-1.279
	c0.404-0.451,0.884-0.896,1.279-1.406c0.845-0.993,1.737-2.063,2.565-3.235c0.925-1.129,1.652-2.417,2.53-3.692
	c0.828-1.292,1.512-2.658,2.362-4.007c0.701-1.432,1.523-2.969,2.244-4.334c0.825-1.494,1.623-2.99,2.502-4.444
	c0.479-0.721,0.975-1.43,1.47-2.129c0.502-0.695,0.938-1.396,1.535-2.047c1.115-1.316,2.173-2.588,3.415-3.712
	c0.616-0.561,1.137-1.137,1.78-1.633c0.628-0.499,1.236-0.981,1.819-1.444c1.159-0.92,2.368-1.68,3.392-2.366
	c1.049-0.666,2.008-1.221,2.789-1.679c1.576-0.902,2.53-1.39,2.53-1.39S62.966,77.116,61.914,78.305z M91.386,31.302v10.142v10.14
	v10.144c0,0.781-0.087,1.484-0.096,2.113c-0.008,0.629-0.07,1.18-0.105,1.656s-0.109,0.877-0.189,1.205
	c-0.08,0.324-0.197,0.572-0.338,0.745c-0.143,0.128-0.431,0.248-0.925,0.355c-0.497,0.107-1.208,0.198-2.198,0.274
	s-2.266,0.136-3.894,0.177c-1.628,0.04-3.611,0.062-6.017,0.062c-1.699,0-3.421-0.043-5.133-0.169
	c-1.714-0.123-3.418-0.33-5.082-0.654s-3.285-0.769-4.833-1.372c-1.548-0.602-3.022-1.361-4.392-2.314
	c-1.274-0.908-2.5-1.972-3.625-3.236c-1.123-1.263-2.144-2.734-3.004-4.454c-0.862-1.721-1.563-3.7-2.05-5.983
	c-0.487-2.285-0.758-4.874-0.758-7.82c0-3.425,0.578-6.806,1.773-9.948c1.193-3.144,3.004-6.056,5.469-8.534
	c2.465-2.481,5.586-4.536,9.398-5.969c3.813-1.434,8.319-2.245,13.557-2.245c2.926,0,5.154,0.045,6.853,0.187
	c1.699,0.14,2.866,0.377,3.669,0.767c0.802,0.389,1.325,0.931,1.56,1.68c0.236,0.747,0.359,1.7,0.359,2.914V31.302z"/>
</svg>
